<?xml version="1.0" encoding="iso-8859-1"?>
<!-- Generator: Adobe Illustrator 28.0.0, SVG Export Plug-In . SVG Version: 6.00 Build 0)  -->
<svg xmlns="http://www.w3.org/2000/svg" xmlns:xlink="http://www.w3.org/1999/xlink" version="1.1" id="Capa_1" x="0px" y="0px" viewBox="0 0 512 512" style="enable-background:new 0 0 512 512;" xml:space="preserve">
<g>
	<g>
		<path style="fill:#B0B8C5;" d="M413.184,43.646c-17.65-21.517-83.554,7.946-112.736,22.503    c-13.377-3.604-30.827-6.265-50.925-8.158c-20.083-2.074-37.719-2.877-51.543-1.958c-25.78-19.997-84.648-61.755-106.152-44.115    c-21.357,17.518-4.432,73.072,4.618,97.974c-15.727,21.435-23.11,45.882-25.23,67.352c-1.833,18.565-1.452,37.326,1.164,56.307    c4.643,33.661,26.426,62.008,57.18,75.153c-4.944,9.234-7.661,19.264-7.661,29.751c0,45.709,51.476,82.763,114.975,82.763    s114.975-37.054,114.975-82.763c0-7.845-1.517-15.436-4.35-22.627c19.002-11.367,33.85-29.216,41.414-51.025    c6.278-18.103,10.321-36.427,12.154-54.993c2.119-21.465-0.339-46.876-11.562-70.967    C403.218,116.212,430.709,65.011,413.184,43.646z"/>
		<g>
			<path style="fill:#90A1B4;" d="M268.157,73.211c-3.034,30.73-14.434,54.743-25.423,53.658     c-11.012-1.087-17.496-26.866-14.462-57.596c0.416-4.212,0.985-8.29,1.702-12.187c13.023,0.692,25.989,1.972,38.894,3.863     C268.81,64.912,268.57,69.022,268.157,73.211z"/>
			<g>
				<path style="fill:#90A1B4;" d="M226.328,58.888c-3.032,30.707-14.411,54.746-25.423,53.658      c-10.589-1.046-17.007-25.082-14.737-54.321c7.024-1.112,14.232-1.683,21.551-1.697c6.272,0.001,12.533,0.12,18.778,0.404      C226.456,57.593,226.393,58.229,226.328,58.888z"/>
				<path style="fill:#90A1B4;" d="M311.635,70.352c-3.457,29.24-14.466,51.699-25.102,50.649      c-11.012-1.087-17.47-26.886-14.438-57.594c0.065-0.659,0.128-1.294,0.216-1.951c7.093,1.08,14.188,2.375,21.243,3.832      C299.772,66.567,305.804,68.279,311.635,70.352z"/>
			</g>
		</g>
		<path style="fill:#FFFFFF;" d="M385.575,88.655c0,0,2.466,7.514,2.186,15.636c-0.242,7.508-5.299,12.758-11.416,14.554    c-10.967-15.267-25.081-28.256-41.518-37.933c0.564-4.031,2.651-7.84,6.241-10.504c14.411-10.718,33.975-21.879,46.396-15.33    C409.098,66.504,385.575,88.655,385.575,88.655z"/>
		<path style="fill:#FFFFFF;" d="M110.085,61.454c0,0-3.888,6.887-5.202,14.907c-1.231,7.41,2.701,13.548,8.349,16.505    c13.741-12.828,30.122-22.805,48.135-29.081c0.235-4.064-1.067-8.207-4.066-11.521c-12.037-13.329-29.04-28.101-42.503-24.107    C91.348,35.131,110.085,61.454,110.085,61.454z"/>
		<path style="fill:#67818D;" d="M222.763,334.597c-0.181,0-0.363-0.009-0.548-0.026c-28.397-2.804-56.905-8.557-84.731-17.1    c-18.532-5.699-34.935-16.508-47.435-31.26c-12.478-14.725-20.476-32.675-23.128-51.908c-2.659-19.287-3.059-38.666-1.19-57.601    c2.141-21.692,11.217-62.627,47.938-93.061c2.344-1.942,5.818-1.617,7.759,0.726c1.942,2.343,1.617,5.817-0.726,7.759    c-33.685,27.918-42.028,65.651-44.003,85.658c-1.784,18.075-1.401,36.584,1.139,55.014c4.795,34.765,29.478,63.865,62.883,74.137    c27.124,8.327,54.908,13.935,82.577,16.667c3.029,0.299,5.242,2.997,4.942,6.026C227.96,332.473,225.563,334.597,222.763,334.597z    "/>
		<path style="fill:#67818D;" d="M417.437,40.144c-9.313-11.353-28.231-12.685-57.835-4.073    c-21.441,6.236-44.004,16.436-59.763,24.233c-12.844-3.271-29.491-5.886-49.75-7.795c-20.283-2.094-37.134-2.785-50.376-2.088    c-13.953-10.738-34.106-25.164-53.883-35.457C118.485,0.73,99.675-1.66,88.324,7.649c-23.385,19.182-8.193,73.478,2.944,104.135    l10.359-3.763c-17.004-46.808-19.364-81.144-6.313-91.85c11.717-9.61,45.142,4.172,88.512,36.088    c-8.427,1.588-16.575,3.674-24.219,6.244c-2.885,0.97-4.438,4.094-3.468,6.979c0.97,2.885,4.095,4.436,6.98,3.467    c7.574-2.546,15.682-4.608,24.095-6.128c13.404-2.414,34.178-2.195,61.792,0.656c27.59,2.6,48.005,6.447,60.675,11.434    c7.962,3.141,15.51,6.749,22.435,10.724c0.865,0.497,1.808,0.733,2.739,0.733c1.909,0,3.765-0.993,4.784-2.768    c1.515-2.639,0.604-6.008-2.036-7.523c-6.992-4.015-14.568-7.665-22.532-10.875c48.753-22.827,84.219-29.803,93.844-18.068    c9.958,12.14,2.799,41.806-19.09,80.259c-3.38-5.949-7.375-11.875-12.088-17.681c-1.917-2.362-5.389-2.723-7.752-0.805    c-2.363,1.919-2.724,5.39-0.805,7.753c27.574,33.965,28.377,72.602,26.402,92.609c-1.784,18.074-5.779,36.15-11.875,53.727    c-11.501,33.157-41.398,56.869-76.167,60.409c-3.028,0.308-5.232,3.013-4.924,6.04c0.289,2.839,2.683,4.953,5.476,4.953    c0.187,0,0.375-0.009,0.565-0.028c19.286-1.964,37.486-9.356,52.631-21.379c15.117-12.001,26.47-28.04,32.833-46.384    c6.38-18.395,10.562-37.322,12.431-56.256c1.585-16.047,1.493-43.166-10.826-71.185c7.239-12.176,16.518-29.404,22.526-46.594    C426.615,68.639,426.341,50.999,417.437,40.144z"/>
		<g>
			<path style="fill:#605C5D;" d="M339.563,218.533c1.009-10.218-6.457-19.319-16.674-20.328     c-10.218-1.009-19.319,6.457-20.328,16.675c-1.009,10.218,6.456,19.319,16.674,20.328     C329.453,236.216,338.554,228.751,339.563,218.533z"/>
			<path style="fill:#605C5D;" d="M199.77,204.731c1.009-10.218-6.456-19.319-16.674-20.328     c-10.218-1.009-19.319,6.456-20.328,16.674c-1.009,10.218,6.457,19.319,16.674,20.328     C189.66,222.414,198.761,214.949,199.77,204.731z"/>
		</g>
		<g>
			<g>
				<path style="fill:#90A1B4;" d="M365.236,253.658c-0.181,0-0.364-0.009-0.547-0.026l-29.233-2.886      c-3.029-0.299-5.242-2.997-4.943-6.026c0.299-3.028,3-5.231,6.026-4.943l29.233,2.886c3.029,0.299,5.242,2.997,4.943,6.025      C370.433,251.532,368.036,253.658,365.236,253.658z"/>
				<path style="fill:#90A1B4;" d="M357.199,280.596c-0.81,0-1.632-0.179-2.409-0.557l-23.043-11.22      c-2.736-1.333-3.875-4.631-2.542-7.368c1.333-2.735,4.631-3.873,7.367-2.542l23.044,11.22c2.736,1.333,3.875,4.631,2.542,7.368      C361.203,279.456,359.241,280.596,357.199,280.596z"/>
			</g>
			<g>
				<path style="fill:#90A1B4;" d="M161.046,233.498c-0.181,0-0.364-0.009-0.548-0.026l-29.233-2.887      c-3.029-0.299-5.242-2.997-4.942-6.025c0.299-3.028,3.001-5.227,6.026-4.943l29.233,2.887c3.029,0.299,5.242,2.997,4.942,6.026      C166.243,231.373,163.846,233.498,161.046,233.498z"/>
				<path style="fill:#90A1B4;" d="M134.406,258.598c-2.445,0-4.678-1.639-5.327-4.115c-0.771-2.944,0.99-5.957,3.934-6.728      l24.793-6.497c2.942-0.77,5.956,0.989,6.728,3.934c0.771,2.944-0.99,5.957-3.934,6.728l-24.793,6.497      C135.339,258.539,134.868,258.598,134.406,258.598z"/>
			</g>
		</g>
		<g>
			<path style="fill:#FFFFFF;" d="M313.392,179.743c-0.181,0-0.364-0.009-0.548-0.026l-15.335-1.515     c-3.029-0.299-5.242-2.997-4.942-6.027c0.299-3.028,2.99-5.229,6.026-4.942l15.335,1.515c3.029,0.299,5.242,2.997,4.942,6.027     C318.589,177.619,316.192,179.743,313.392,179.743z"/>
			<path style="fill:#FFFFFF;" d="M212.446,169.776c-0.181,0-0.364-0.009-0.548-0.027l-15.336-1.515     c-3.029-0.299-5.242-2.997-4.942-6.026c0.299-3.028,3.003-5.236,6.026-4.942l15.336,1.515c3.029,0.299,5.242,2.997,4.942,6.026     C217.643,167.652,215.246,169.776,212.446,169.776z"/>
		</g>
		<g>
			<path style="fill:#67818D;" d="M204.125,233.787c-2.294,20.848,17.822,45.456,39.769,47.696     c6.939,0.708,14.177-0.811,20.861-3.884c17.582-8.093,31.485-26.948,26.993-44.187c-6.749-25.859-25.133-10.147-41.74-11.842     c-16.607-1.695-31.438-20.796-43.271,3.166C205.302,227.608,204.47,230.637,204.125,233.787z"/>
			<path style="fill:#FF7AA7;" d="M204.125,233.787c-2.294,20.848,17.822,45.456,39.769,47.696     c6.939,0.708,14.177-0.811,20.861-3.884c2.294-20.848-17.822-45.456-39.769-47.696     C218.046,229.194,210.808,230.713,204.125,233.787z"/>
			<path style="fill:#67818D;" d="M297.078,232.012c-6.032-23.094-21.605-19.834-32.977-17.454     c-2.664,0.557-5.378,1.119-8.007,1.416l0.863-8.737l2.725,0.269c0.185,0.018,0.367,0.026,0.548,0.026     c2.8,0,5.197-2.124,5.478-4.969c0.299-3.029-1.913-5.727-4.942-6.027l-8.2-0.81c-0.003,0-0.007-0.001-0.01-0.001     c-0.003,0-0.007,0-0.01-0.001l-8.201-0.81c-3.027-0.286-5.727,1.915-6.025,4.943c-0.299,3.029,1.914,5.726,4.943,6.026     l2.726,0.269l-0.858,8.691c-2.501-0.82-5.032-1.911-7.516-2.989c-10.656-4.63-25.25-10.968-35.823,10.432     c-5.289,10.704-4.281,24.154,2.767,36.901c8.481,15.341,23.7,26.247,38.771,27.785c0,0,0,0,0.001,0     c1.288,0.131,2.589,0.196,3.903,0.196c14.049,0,29.25-7.403,39.68-19.576C296.391,256.532,300.096,243.564,297.078,232.012z      M278.544,260.422c-8.986,10.486-22.686,16.745-34.095,15.586c-11.407-1.165-23.562-10.068-30.244-22.153     c-5.275-9.54-6.197-19.267-2.531-26.685c5.924-11.992,10.499-10.005,21.551-5.206c4.843,2.104,10.333,4.488,16.22,5.089     c5.889,0.602,11.746-0.625,16.915-1.708c11.793-2.468,16.674-3.49,20.055,9.452C288.506,242.804,285.637,252.144,278.544,260.422     z"/>
		</g>
	</g>
	<g>
		<path style="fill:#FFFFFF;" d="M184.214,385.294h74.311l23.795-95.637c2.016-8.105,9.294-13.794,17.646-13.794l0,0h188.33    c11.82,0,20.498,11.101,17.646,22.571l-24.97,100.434c-3.674,14.778-16.945,25.154-32.173,25.154h-162.41h0H248.89l0.003-0.01    h-64.678c-10.692,0-19.358-8.667-19.358-19.359C164.855,393.961,173.522,385.294,184.214,385.294z"/>
		<path style="fill:#E2E2E2;" d="M506.962,279.454c-4.522-5.784-11.326-9.101-18.667-9.101c0,0-189.002,0.007-189.245,0.017    c-10.466,0.391-19.606,8.023-22.228,18.557l-22.605,90.856h-69.192c-13.755,0-25.27,10.815-25.669,24.109    c-0.204,6.791,2.286,13.212,7.01,18.08c4.726,4.869,11.064,7.551,17.848,7.551h64.347c0.109,0.007,0.219,0.01,0.329,0.01h14.742    h185.166c17.798,0,33.227-12.063,37.522-29.335l24.97-100.433C513.061,292.639,511.484,285.236,506.962,279.454z M500.594,297.104    l-24.97,100.433c-3.07,12.349-14.102,20.973-26.826,20.973l-81.456,5.512l-78.364-5.512c3.897-4.188,6.79-9.379,8.248-15.243    c0.734-2.954-1.065-5.943-4.019-6.678c-2.953-0.732-5.943,1.065-6.677,4.019c-2.62,10.541-12.036,17.902-22.898,17.902    l-26.758,2.708c-0.109-0.007,0.11,0,0,0l-52.66-2.718c-3.777,0-7.307-1.493-9.939-4.205c-2.63-2.71-4.016-6.288-3.903-10.074    c0.222-7.398,6.795-13.418,14.652-13.418h73.5c2.531,0,4.737-1.724,5.348-4.18l23.645-95.036    c1.443-5.799,6.354-9.995,11.944-10.205c4.044-0.151,7.804,1.552,10.336,4.669c2.536,3.122,3.435,7.15,2.465,11.051    l-15.266,61.402c-0.734,2.954,1.065,5.943,4.018,6.678c2.954,0.732,5.943-1.066,6.678-4.019l15.266-61.402    c1.586-6.38,0.5-12.94-2.969-18.389h168.305c3.926,0,7.565,1.774,9.983,4.867C500.697,289.334,501.541,293.293,500.594,297.104z"/>
	</g>
	<g>
		<path style="fill:#FF7AA7;" d="M483.155,481.97l-177.882-0.001c-4.195-11.459-4.195-24.072,0-35.532h177.882    c6.19,0,11.208-5.018,11.208-11.208c0-6.19-5.018-11.208-11.208-11.208H297.989H112.823c-4.183,0-8.018,2.329-9.946,6.041    c-11.108,21.378-11.108,46.905,0,68.283c1.928,3.712,5.763,6.041,9.946,6.041h185.166h185.166c6.19,0,11.208-5.018,11.208-11.208    C494.363,486.988,489.345,481.97,483.155,481.97z"/>
		<path style="fill:#FFFFFF;" d="M483.155,446.438c-4.195,11.459-4.195,24.073,0,35.531l-177.882,0l-3.146-17.765l3.146-17.766    L483.155,446.438z"/>
		<path style="fill:#E2E2E2;" d="M477.98,483.863c-4.641-12.677-4.641-26.641,0-39.32l10.35,3.789    c-3.747,10.235-3.747,21.508,0,31.742L477.98,483.863z"/>
		<path style="fill:#FD518D;" d="M483.155,476.459l-173.864-0.001c-2.204-8.013-2.204-16.495,0-24.509h173.864    c9.219,0,16.719-7.5,16.719-16.719c0-9.218-7.5-16.719-16.719-16.719H112.823c-6.264,0-11.948,3.453-14.835,9.01    c-11.935,22.97-11.935,50.396,0,73.365c2.888,5.558,8.572,9.011,14.836,9.011h370.332c9.219,0,16.719-7.5,16.719-16.719    C499.874,483.959,492.374,476.459,483.155,476.459z M107.768,495.805c-10.281-19.787-10.281-43.415,0-63.203    c0.983-1.893,2.921-3.07,5.055-3.07h169.323c-10.589,21.874-10.589,47.47,0,69.343H112.823    C110.689,498.876,108.752,497.699,107.768,495.805z M483.155,498.876H297.989c-2.135,0-4.072-1.176-5.056-3.07    c-10.28-19.787-10.28-43.415,0.001-63.203c0.983-1.893,2.921-3.07,5.055-3.07h185.166c3.141,0,5.697,2.556,5.697,5.697    c0,3.142-2.556,5.698-5.697,5.698H305.273c-2.313,0-4.38,1.444-5.175,3.617c-4.641,12.678-4.641,26.642,0,39.32    c0.795,2.172,2.862,3.616,5.175,3.616l177.882,0.001c3.141,0,5.697,2.556,5.697,5.698    C488.852,496.32,486.296,498.876,483.155,498.876z"/>
		<path style="fill:#FD518D;" d="M257.588,457.341h-85.122c-3.044,0-5.511-2.468-5.511-5.511c0-3.043,2.467-5.511,5.511-5.511    h85.122c3.044,0,5.511,2.468,5.511,5.511C263.099,454.874,260.632,457.341,257.588,457.341z"/>
		<path style="fill:#FD518D;" d="M257.588,483.351h-46.189c-3.044,0-5.511-2.468-5.511-5.511c0-3.043,2.467-5.511,5.511-5.511    h46.189c3.044,0,5.511,2.468,5.511,5.511C263.099,480.883,260.632,483.351,257.588,483.351z"/>
	</g>
	<g>
		<g>
			<path style="fill:#FFFFFF;" d="M97.893,245.904l32.568,0.34c0,0,40.305,52.05,16.916,81.999c0,0,37.908-4.79,88.046,34.367     l-7.677,17.864l-89.686-1.473l-58.626-69.513L97.893,245.904z"/>
			<path style="fill:#E2E2E2;" d="M232.808,382.65l-10.126-4.352l5.983-13.92c-45.771-34.291-80.27-30.707-80.62-30.664     c-2.205,0.257-4.368-0.832-5.458-2.77c-1.09-1.938-0.921-4.34,0.448-6.093c5.736-7.345,10.335-21.372-0.331-46.485     c-5.156-12.14-12.025-22.385-15.055-26.64l-29.812-0.31l0.114-11.022l32.568,0.34c1.684,0.018,3.269,0.805,4.3,2.137     c1.602,2.068,35.891,46.985,22.13,79.853c15.092,1.03,45.397,7.063,81.867,35.544c1.974,1.541,2.66,4.219,1.671,6.52     L232.808,382.65z"/>
			<g>
				<polygon style="fill:#65E0E8;" points="238.297,387.342 121.732,469.296 48.023,424.152 5.5,348.91 91.523,235.304       147.374,328.245     "/>
			</g>
			<path style="fill:#00D3D6;" d="M180.259,403.078c-1.061,0-2.132-0.306-3.077-0.943l-37.135-25.056     c-2.523-1.703-3.188-5.128-1.486-7.651c1.703-2.523,5.128-3.186,7.65-1.486l37.135,25.056c2.523,1.702,3.188,5.128,1.486,7.651     C183.768,402.227,182.029,403.078,180.259,403.078z"/>
			<path style="fill:#00D3D6;" d="M241.306,382.715l-89.86-58.399l-55.204-91.858c-0.943-1.569-2.602-2.567-4.43-2.665     c-1.828-0.091-3.583,0.718-4.688,2.177L1.117,345.587c-1.326,1.751-1.485,4.124-0.404,6.037l42.516,75.247l0.008-0.004     c0.455,0.805,1.103,1.497,1.912,1.993l73.706,45.135c0.885,0.542,1.882,0.811,2.877,0.811c1.112,0,2.222-0.336,3.17-1.003     l116.57-81.96c1.497-1.052,2.373-2.779,2.34-4.609C243.78,385.406,242.84,383.712,241.306,382.715z M90.993,245.12l49.402,82.203     l-91.073,87.925l-37.233-65.896L90.993,245.12z M121.524,462.705l-64.547-39.526l91.073-87.925l80.416,52.261L121.524,462.705z"/>
		</g>
		<g>
			<path style="fill:#B0B8C5;" d="M26.689,278.191c10.325-13.221,23.334-20.316,36.555-9.991s15.568,29.413,5.243,42.634     c-10.325,13.221-29.413,15.568-42.634,5.243C12.633,305.752,16.364,291.412,26.689,278.191z"/>
			<path style="fill:#67818D;" d="M44.476,328.029c-7.959,0.001-15.643-2.631-22.015-7.608c-7.651-5.975-11.285-13.818-10.51-22.681     c0.63-7.197,4.127-14.915,10.394-22.941c6.267-8.026,12.908-13.289,19.739-15.643c8.411-2.898,16.901-1.273,24.551,4.701     c7.554,5.9,12.359,14.389,13.529,23.902c1.17,9.514-1.435,18.913-7.335,26.468c-5.899,7.554-14.388,12.359-23.901,13.529     C47.441,327.939,45.953,328.029,44.476,328.029z M50.203,268.785c-1.494,0-3,0.264-4.526,0.791     c-4.715,1.625-9.779,5.778-14.644,12.007l0,0.001c-4.865,6.229-7.666,12.148-8.1,17.117c-0.447,5.104,1.619,9.367,6.314,13.033     c5.234,4.088,11.745,5.889,18.338,5.082c6.591-0.811,12.472-4.14,16.56-9.374c4.088-5.235,5.893-11.747,5.082-18.339     c-0.811-6.591-4.14-12.473-9.373-16.56C56.637,270.033,53.449,268.785,50.203,268.785z M26.689,278.191h0.01H26.689z"/>
		</g>
	</g>
</g>
<g>
</g>
<g>
</g>
<g>
</g>
<g>
</g>
<g>
</g>
<g>
</g>
<g>
</g>
<g>
</g>
<g>
</g>
<g>
</g>
<g>
</g>
<g>
</g>
<g>
</g>
<g>
</g>
<g>
</g>
</svg>
