<?xml version="1.0" encoding="iso-8859-1"?>
<!-- Generator: Adobe Illustrator 26.5.3, SVG Export Plug-In . SVG Version: 6.00 Build 0)  -->
<svg xmlns="http://www.w3.org/2000/svg" xmlns:xlink="http://www.w3.org/1999/xlink" version="1.1" id="Capa_1" x="0px" y="0px" viewBox="0 0 512 512" style="enable-background:new 0 0 512 512;" xml:space="preserve">
<g>
	<g>
		<path style="fill:#B1B9C6;" d="M440.026,51.023c-17.847-22.888-87.316,6.13-118.116,20.554    c-13.853-4.103-31.978-7.326-52.883-9.818c-20.885-2.68-39.251-3.972-53.687-3.37c-26.362-21.513-86.66-66.566-109.534-48.73    c-22.717,17.714-6.505,76.069,2.288,102.264c-16.949,21.942-25.277,47.239-28.04,69.568c-2.39,19.309-2.476,38.878-0.238,58.735    c4.372,38.756,30.554,71.341,67.535,83.72c28.561,9.548,57.488,35.86,86.781,39.486c29.294,3.625,58.954-15.436,88.98-17.733    c38.883-2.989,72.219-28.209,85.908-64.729c7.012-18.712,11.699-37.712,14.089-57.021c2.763-22.324,0.856-48.881-10.225-74.287    C427.765,126.421,457.746,73.749,440.026,51.023z"/>
		<g>
			<path style="fill:#91A2B5;" d="M288.062,78.107c-3.956,31.961-16.46,56.702-27.888,55.287     c-11.453-1.417-17.548-28.46-13.592-60.421c0.542-4.381,1.241-8.618,2.089-12.662c13.56,1.057,27.044,2.726,40.45,5.03     C288.957,69.472,288.601,73.751,288.062,78.107z"/>
			<g>
				<path style="fill:#91A2B5;" d="M244.822,62.096c-3.953,31.937-16.435,56.705-27.889,55.287      c-11.013-1.363-17.084-26.589-13.964-57.014c7.351-0.979,14.881-1.388,22.513-1.214c6.539,0.163,13.064,0.448,19.567,0.906      C244.988,60.75,244.907,61.411,244.822,62.096z"/>
				<path style="fill:#91A2B5;" d="M333.465,76.247c-4.358,30.395-16.415,53.527-27.476,52.158      c-11.453-1.417-17.521-28.481-13.568-60.418c0.085-0.685,0.167-1.346,0.276-2.028c7.367,1.309,14.731,2.842,22.049,4.543      C321.195,71.995,327.44,73.936,333.465,76.247z"/>
			</g>
		</g>
		<path style="fill:#FFFFFF;" d="M410.081,97.236c0,0,2.377,7.898,1.876,16.358c-0.446,7.821-5.853,13.165-12.277,14.879    c-11.04-16.2-25.42-30.105-42.307-40.618c0.692-4.188,2.966-8.106,6.777-10.79c15.301-10.803,35.985-21.934,48.767-14.786    C435.177,74.749,410.081,97.236,410.081,97.236z"/>
		<path style="fill:#FFFFFF;" d="M123.564,61.775c0,0-4.231,7.08-5.808,15.407c-1.474,7.694,2.467,14.194,8.279,17.423    c14.656-13.02,31.993-22.999,50.934-29.079c0.349-4.23-0.901-8.584-3.942-12.116c-12.206-14.207-29.552-30.046-43.691-26.229    C104.708,33.849,123.564,61.775,123.564,61.775z"/>
		<path style="fill:#67828E;" d="M444.363,47.627c-9.352-11.993-28.96-13.843-59.945-5.655    c-22.535,5.954-46.347,16.024-62.972,23.747c-13.304-3.749-30.609-6.909-51.717-9.426c-21.127-2.711-38.695-3.866-52.519-3.472    c-14.264-11.554-34.925-27.135-55.294-38.387c-28.049-15.493-47.513-18.478-59.506-9.129    c-24.057,18.758-11.126,72.987-0.466,105.576c-18.981,25.669-25.293,53.247-27.358,69.932    c-2.435,19.673-2.517,39.869-0.245,60.029c2.265,20.075,10.123,38.952,22.724,54.591c12.624,15.668,29.408,27.333,48.537,33.737    c0.58,0.194,1.17,0.286,1.749,0.286c2.305,0,4.453-1.457,5.225-3.763c0.966-2.886-0.59-6.008-3.476-6.974    c-34.649-11.598-59.695-42.652-63.809-79.112c-2.176-19.3-2.098-38.626,0.231-57.441c2.579-20.844,12.268-60.037,48.173-88.327    c2.39-1.883,2.802-5.348,0.918-7.738c-1.884-2.391-5.35-2.801-7.738-0.918c-6.237,4.914-11.738,10.129-16.602,15.51    c-13.64-44.437-14.141-76.52-1.088-86.698c12.591-9.816,47.368,5.539,92.057,40.227c-9.009,1.444-17.721,3.45-25.902,5.977    c-2.907,0.898-4.536,3.983-3.638,6.891c0.898,2.908,3.984,4.534,6.891,3.638c7.968-2.462,16.486-4.405,25.312-5.776    c14.059-2.176,35.733-1.411,64.47,2.276c28.719,3.424,49.926,7.967,63.027,13.502c8.231,3.485,16.018,7.446,23.144,11.775    c0.894,0.543,1.881,0.802,2.855,0.802c1.861-0.001,3.678-0.944,4.715-2.65c1.58-2.601,0.752-5.99-1.849-7.57    c-7.321-4.448-15.285-8.519-23.681-12.12c51.784-22.763,89.256-29.175,99.086-16.566c10.162,13.032,1.86,44.025-22.174,83.817    c-3.405-6.404-7.469-12.801-12.319-19.087c-1.859-2.41-5.32-2.855-7.729-0.996c-2.409,1.859-2.855,5.319-0.996,7.729    c27.925,36.19,27.766,76.562,25.186,97.407c-2.329,18.815-6.965,37.577-13.779,55.763c-12.878,34.358-44.74,58.369-81.171,61.169    c-3.034,0.233-5.305,2.882-5.072,5.916c0.222,2.891,2.637,5.089,5.488,5.089c0.141,0,0.285-0.006,0.428-0.017    c20.113-1.546,39.235-8.769,55.298-20.885c16.034-12.095,28.257-28.487,35.348-47.404c7.118-18.996,11.962-38.603,14.397-58.277    c2.065-16.685,2.668-44.968-9.482-74.489C437.358,121.115,463.095,71.651,444.363,47.627z"/>
		<g>
			<g>
				<path style="fill:#91A2B5;" d="M364.605,290.857c-0.226,0-0.454-0.014-0.684-0.042l-30.403-3.763      c-3.02-0.374-5.165-3.125-4.792-6.146c0.374-3.02,3.12-5.167,6.146-4.792l30.403,3.763c3.02,0.374,5.166,3.125,4.792,6.146      C369.722,288.813,367.347,290.857,364.605,290.857z"/>
			</g>
			<g>
				<path style="fill:#91A2B5;" d="M152.242,264.574c-0.226,0-0.454-0.014-0.684-0.042l-30.403-3.763      c-3.02-0.374-5.165-3.125-4.791-6.146c0.374-3.019,3.12-5.168,6.146-4.792l30.403,3.763c3.02,0.374,5.166,3.125,4.792,6.146      C157.358,262.53,154.983,264.574,152.242,264.574z"/>
				<path style="fill:#91A2B5;" d="M123.82,290.057c-2.498,0-4.76-1.71-5.358-4.247c-0.699-2.962,1.136-5.929,4.098-6.628      l26.015-6.134c2.959-0.701,5.929,1.136,6.627,4.098c0.699,2.962-1.136,5.93-4.098,6.628l-26.015,6.134      C124.664,290.008,124.239,290.057,123.82,290.057z"/>
			</g>
		</g>
		<g>
			<path style="fill:#67828E;" d="M273.499,282.339c-0.4,3.031-1.225,5.887-2.4,8.549c-1.449,3.275-3.409,6.262-5.813,8.822     c-3.76,4.082-8.558,7.116-13.906,8.765c-4.262,1.311-8.889,1.757-13.628,1.095c-10.361-1.406-18.881-7.653-23.568-16.159     c-2.477-4.481-3.884-9.575-3.969-14.904c-0.033-1.545,0.063-3.122,0.284-4.71c0.558-4.106,1.798-7.307,3.573-9.795     c3.5-4.785,9.07-6.829,15.816-7.336c4.514-0.335,9.586,0.044,14.936,0.781c13.295,1.795,24.399,5.231,27.845,14.528     C273.755,274.842,274.053,278.258,273.499,282.339z"/>
			<path style="fill:#FD80A6;" d="M265.285,299.709c-3.76,4.082-8.558,7.116-13.906,8.765c-4.262,1.311-8.889,1.757-13.628,1.095     c-10.361-1.406-18.881-7.653-23.568-16.159c3.699-3.99,8.397-7.012,13.646-8.673c4.24-1.339,8.874-1.833,13.615-1.197     C251.917,284.86,260.534,291.121,265.285,299.709z"/>
			<path style="fill:#67828E;" d="M269.767,259.751c-4.513-3.207-10.449-5.408-18.832-6.943l0.654-5.281l3.07,0.38     c0.23,0.028,0.458,0.042,0.683,0.042c2.741,0,5.116-2.044,5.462-4.834c0.374-3.02-1.772-5.771-4.792-6.145l-17.077-2.113     c-3.021-0.377-5.771,1.772-6.145,4.792c-0.374,3.02,1.772,5.771,4.792,6.145l3.07,0.38l-0.638,5.157     c-8.426-0.739-14.696-0.196-19.874,1.682c-8.638,3.133-13.718,9.875-15.098,20.04c-1.34,9.874,1.244,19.68,7.279,27.609     c6.034,7.93,14.795,13.036,24.67,14.377c1.696,0.23,3.378,0.342,5.044,0.342c18.359-0.001,34.404-13.602,36.942-32.29     C280.355,272.926,277.257,265.074,269.767,259.751z M268.055,281.608c-1.95,14.363-15.226,24.464-29.582,22.51     c-6.958-0.945-13.131-4.542-17.382-10.13c-4.252-5.587-6.073-12.496-5.128-19.453c0,0,0,0,0,0     c1.048-7.723,4.791-10.022,7.935-11.162c2.469-0.896,5.552-1.341,9.413-1.341c3.069,0,6.629,0.282,10.762,0.843     C265.761,265.819,269.328,272.225,268.055,281.608z"/>
		</g>
		<g>
			<g>
				<path style="fill:#93F6F8;" d="M226.717,218.391c-2.019,17.09-11.629,31.455-25.063,40.074      c-10.425,6.71-23.116,9.959-36.384,8.392c-5.006-0.591-9.798-1.839-14.25-3.648c-22.584-9.107-37.21-32.447-34.215-57.8      c2.464-20.858,16.233-37.624,34.476-44.911l0.027,0.003c8.28-3.334,17.471-4.677,26.945-3.558      c6.97,0.823,13.465,2.9,19.319,6.02C217.224,173.308,229.476,195.03,226.717,218.391z"/>
				<path style="fill:#93F6F8;" d="M382.409,236.78c-1.888,15.986-10.425,29.577-22.51,38.329      c-10.837,7.889-24.566,11.834-38.937,10.137c-4.548-0.537-8.895-1.624-13.027-3.149c-23.28-8.753-38.487-32.489-35.439-58.299      c2.578-21.826,17.566-39.212,37.044-45.863c7.596-2.623,15.899-3.607,24.403-2.603c7.374,0.871,14.254,3.157,20.344,6.578      C373.345,192.457,385.12,213.823,382.409,236.78z"/>
				<path style="fill:#DDFCFC;" d="M359.899,275.108c-10.837,7.889-24.566,11.834-38.937,10.137      c-4.548-0.537-8.895-1.624-13.027-3.149c19.246-22.941,15.348-38.683-4.528-47.607c-19.435-8.736-11.617-38.648,6.134-56.554      c7.596-2.623,15.899-3.607,24.403-2.603c7.374,0.871,14.254,3.157,20.344,6.578c-18.579,17.753-27.185,48.801-7.309,57.725      C363.122,246.891,368.718,258.658,359.899,275.108z"/>
				<path style="fill:#DDFCFC;" d="M201.654,258.464c-10.425,6.71-23.116,9.959-36.384,8.392c-5.006-0.591-9.798-1.839-14.25-3.648      c18.979-22.755,15.014-38.395-4.758-47.28c-19.047-8.553-11.928-37.402,5.019-55.43l0.027,0.003      c8.28-3.334,17.471-4.677,26.945-3.558c6.97,0.823,13.465,2.9,19.319,6.02c-18.899,17.688-27.768,49.114-7.737,58.111      C206.598,228.622,211.986,240.992,201.654,258.464z"/>
				<path style="fill:#605C5D;" d="M445.814,202.153l-3.216-4.078c-3.506-4.445-8.76-7.148-14.415-7.418      c-5.658-0.271-11.142,1.923-15.053,6.016l-25.246,26.407c-1.296-11.034-5.601-21.53-12.655-30.473      c-10.066-12.761-24.498-20.839-40.639-22.746c-30.318-3.583-58.141,15.895-65.872,44.539      c-13.646-7.816-27.572-6.248-36.129-3.947c-0.691-29.793-23.256-55.386-53.686-58.98c-16.143-1.911-32.059,2.587-44.82,12.652      c-8.945,7.055-15.577,16.261-19.408,26.692l-18.403-31.568c-2.851-4.89-7.676-8.301-13.238-9.357      c-5.561-1.057-11.301,0.35-15.746,3.855l-4.078,3.216c-2.39,1.884-2.799,5.349-0.914,7.738c1.882,2.389,5.348,2.8,7.738,0.914      l4.079-3.216c1.967-1.551,4.405-2.148,6.866-1.681c2.461,0.467,4.511,1.916,5.772,4.08l24.408,41.869      c-1.349,15.484,3.161,30.657,12.83,42.916c10.065,12.762,24.498,20.84,40.639,22.746c2.414,0.285,4.808,0.424,7.182,0.424      c29.321,0,54.871-21.238,59.909-50.492c5.948-2.206,21.223-6.205,35.017,3.997c-2.148,32.078,21.297,60.646,53.579,64.459      c2.414,0.285,4.808,0.424,7.182,0.424c29.765,0,55.637-21.89,60.116-51.832l33.483-35.021c1.731-1.811,4.061-2.748,6.564-2.623      c2.502,0.119,4.734,1.268,6.286,3.234l3.216,4.078c1.885,2.389,5.349,2.799,7.739,0.914      C447.29,208.007,447.699,204.542,445.814,202.153z M165.921,261.385c-13.218-1.561-25.036-8.176-33.279-18.627      c-8.242-10.45-11.921-23.485-10.36-36.703c2.989-25.31,24.561-43.986,49.447-43.986c1.942,0,3.906,0.114,5.882,0.347      c13.218,1.562,25.036,8.176,33.279,18.626c8.242,10.451,11.922,23.485,10.361,36.703      C218.028,245.031,193.213,264.611,165.921,261.385z M358.31,269.412c-10.451,8.242-23.485,11.921-36.703,10.361      c-27.283-3.222-46.858-28.038-43.641-55.32c0-0.003,0.001-0.007,0.001-0.01c2.99-25.31,24.561-43.986,49.447-43.986      c1.942,0,3.907,0.114,5.882,0.347c13.218,1.561,25.036,8.176,33.279,18.626c8.242,10.45,11.921,23.485,10.361,36.703      C375.375,249.351,368.76,261.169,358.31,269.412z"/>
			</g>
			<g>
				
					<ellipse transform="matrix(0.1147 -0.9934 0.9934 0.1147 -71.4548 386.8259)" style="fill:#00D4D7;" cx="181.295" cy="233.502" rx="20.308" ry="17.605"/>
				
					<ellipse transform="matrix(0.1147 -0.9934 0.9934 0.1147 30.3831 531.6036)" style="fill:#00D4D7;" cx="313.443" cy="248.756" rx="20.308" ry="17.605"/>
			</g>
		</g>
	</g>
	<g>
		<path style="fill:#FFFFFF;" d="M222.531,404.485l61.117,82.081c4.592,6.167,13.314,7.444,19.482,2.852l107.662-80.164    c6.167-4.592,7.444-13.314,2.852-19.482l-61.117-82.081c-4.592-6.167-13.314-7.444-19.482-2.852l-107.662,80.164    C219.216,389.595,217.939,398.317,222.531,404.485z"/>
		<path style="fill:#E3E3E3;" d="M294.856,497.688c-0.948,0-1.902-0.069-2.856-0.209c-5.136-0.752-9.672-3.459-12.772-7.622    l-61.116-82.081c-6.399-8.594-4.614-20.792,3.98-27.192l107.663-80.164c4.163-3.1,9.284-4.394,14.421-3.641    c5.136,0.752,9.672,3.459,12.772,7.622l61.117,82.081c6.399,8.595,4.613,20.793-3.982,27.192L306.42,493.838    C303.03,496.362,299.006,497.688,294.856,497.688z M341.342,307.591c-1.797,0-3.539,0.574-5.006,1.667l-107.663,80.164    c-3.72,2.77-4.494,8.051-1.723,11.771c0,0.001,0.001,0.001,0.001,0.001l61.116,82.081c1.342,1.803,3.306,2.974,5.529,3.299    c2.222,0.326,4.441-0.234,6.242-1.576L407.5,404.834c3.721-2.77,4.494-8.051,1.723-11.771l-61.117-82.081    c-1.342-1.802-3.305-2.974-5.529-3.299C342.165,307.621,341.752,307.591,341.342,307.591z"/>
	</g>
	<g>
		<path style="fill:#B1B9C6;" d="M373.907,316.203c-17.166,8.789-23.957,29.83-15.168,46.996    c8.789,17.166,29.83,23.957,46.996,15.168c17.166-8.789,15.976-25.744,7.187-42.91    C404.134,318.291,391.073,307.414,373.907,316.203z"/>
		<path style="fill:#67828E;" d="M389.888,387.71c-14.703,0-28.905-8.037-36.053-21.999c-10.16-19.843-2.282-44.252,17.561-54.412    c0,0,0,0,0,0c9.672-4.953,19.328-4.943,27.92,0.029c7.018,4.06,13.246,11.334,18.511,21.619    c5.266,10.284,7.526,19.589,6.718,27.657c-0.99,9.878-6.625,17.716-16.298,22.669C402.366,386.283,396.082,387.71,389.888,387.71z     M376.419,321.108L376.419,321.108c-14.435,7.391-20.165,25.146-12.775,39.58c3.58,6.992,9.669,12.172,17.144,14.585    c7.476,2.412,15.444,1.77,22.436-1.81c6.353-3.253,9.74-7.819,10.356-13.958c0.585-5.84-1.338-13.287-5.562-21.536    c-4.224-8.249-9.141-14.163-14.221-17.102C388.457,317.776,382.77,317.856,376.419,321.108z"/>
	</g>
	<g>
		<path style="fill:#FFFFFF;" d="M268.85,390.815l-61.117,82.081c-4.592,6.167-13.314,7.444-19.482,2.852L80.589,395.585    c-6.167-4.592-7.444-13.314-2.852-19.482l61.117-82.081c4.592-6.167,13.314-7.444,19.482-2.852l107.662,80.164    C272.165,375.926,273.442,384.648,268.85,390.815z"/>
		<path style="fill:#E3E3E3;" d="M196.525,484.019c-4.151,0-8.175-1.326-11.564-3.85L77.298,400.004    c-8.595-6.4-10.381-18.598-3.981-27.192l61.117-82.081c3.1-4.163,7.636-6.87,12.772-7.622c5.134-0.753,10.257,0.541,14.421,3.641    l107.662,80.163c4.163,3.1,6.871,7.636,7.622,12.772c0.752,5.136-0.541,10.257-3.641,14.421l-61.117,82.081    c-3.1,4.163-7.636,6.871-12.772,7.622C198.427,483.949,197.472,484.019,196.525,484.019z M150.038,293.922    c-0.41,0-0.823,0.03-1.236,0.091c-2.223,0.326-4.187,1.497-5.529,3.299l-61.117,82.081c-2.77,3.721-1.997,9.001,1.723,11.771    l107.662,80.164c1.802,1.342,4.019,1.904,6.242,1.576c2.223-0.325,4.187-1.497,5.529-3.299l61.117-82.081l4.42,3.291l-4.42-3.291    c1.342-1.802,1.902-4.019,1.576-6.242c-0.325-2.223-1.497-4.187-3.299-5.529L155.045,295.59    C153.577,294.497,151.835,293.922,150.038,293.922z"/>
	</g>
	<g>
		<path style="fill:#FFFFFF;" d="M326.954,458.894V383.38c0-6.9-5.593-12.493-12.493-12.493H160.865    c-6.9,0-12.493,5.593-12.493,12.493v75.514H326.954z"/>
		<path style="fill:#FFBF8C;" d="M345.878,424.309v71.349c0,5.982-4.849,10.832-10.832,10.832H140.259    c-5.982,0-10.832-4.85-10.832-10.832v-71.349c0-5.982,4.849-10.832,10.832-10.832h42.98c4.076,0,7.807,2.288,9.654,5.921    l8.509,16.728c1.848,3.633,5.579,5.921,9.654,5.921h53.191c4.076,0,7.807-2.288,9.655-5.921l8.508-16.728    c1.848-3.633,5.579-5.921,9.655-5.921h42.981C341.028,413.477,345.878,418.327,345.878,424.309z"/>
		<path style="fill:#E3E3E3;" d="M332.464,413.473h-11.02V383.38c0-3.85-3.133-6.983-6.983-6.983H160.865    c-3.85,0-6.983,3.133-6.983,6.983v30.093h-11.02V383.38c0-9.927,8.076-18.003,18.003-18.003h153.596    c9.927,0,18.004,8.076,18.004,18.003V413.473z"/>
		<path style="fill:#FF9D6F;" d="M335.046,512H140.259c-9.011,0-16.342-7.331-16.342-16.342v-71.35    c0-9.011,7.331-16.342,16.342-16.342h42.98c6.182,0,11.763,3.423,14.565,8.934l8.509,16.727c0.913,1.794,2.73,2.909,4.743,2.909    h53.192c2.013,0,3.83-1.115,4.744-2.91l8.507-16.727c2.802-5.51,8.384-8.933,14.566-8.933h42.981    c9.011,0,16.342,7.331,16.342,16.342v71.35C351.388,504.669,344.057,512,335.046,512z M140.259,418.987    c-2.934,0-5.321,2.387-5.321,5.321v71.35c0,2.934,2.387,5.321,5.321,5.321h194.788c2.935,0,5.322-2.387,5.322-5.321v-71.35    c0-2.934-2.387-5.321-5.322-5.321h-42.981c-2.013,0-3.831,1.114-4.743,2.909l-8.508,16.728c-2.803,5.511-8.385,8.934-14.566,8.934    h-53.192c-6.181,0-11.762-3.423-14.565-8.932l-8.509-16.728c-0.912-1.795-2.73-2.909-4.743-2.909H140.259z"/>
		<path style="fill:#605C5D;" d="M280.356,487.876h-85.408c-3.043,0-5.51-2.467-5.51-5.51v-12.678c0-3.043,2.467-5.51,5.51-5.51    c3.043,0,5.51,2.467,5.51,5.51v7.168h74.387v-7.168c0-3.043,2.467-5.51,5.51-5.51s5.51,2.467,5.51,5.51v12.678    C285.866,485.409,283.399,487.876,280.356,487.876z"/>
	</g>
	<g>
		<path style="fill:#B1B9C6;" d="M114.761,300.07c17.166,8.789,23.957,29.83,15.168,46.996    c-8.789,17.166-29.83,23.957-46.996,15.168c-17.166-8.789-15.976-25.744-7.187-42.91    C84.534,302.158,97.595,291.281,114.761,300.07z"/>
		<path style="fill:#67828E;" d="M98.78,371.577c-6.195,0-12.477-1.426-18.359-4.438c-9.673-4.953-15.309-12.791-16.298-22.669    c-0.808-8.067,1.452-17.372,6.718-27.657c5.266-10.284,11.494-17.558,18.511-21.618c8.593-4.971,18.248-4.98,27.92-0.029    c19.843,10.16,27.721,34.569,17.561,54.412C127.685,363.538,113.482,371.577,98.78,371.577z M102.963,302.474    c-2.804,0-5.488,0.753-8.091,2.259c-5.08,2.939-9.998,8.853-14.222,17.102c-4.224,8.249-6.147,15.696-5.561,21.535    c0.615,6.14,4.002,10.705,10.356,13.958c6.992,3.58,14.959,4.223,22.435,1.81c7.476-2.413,13.564-7.592,17.145-14.585    c7.39-14.434,1.66-32.189-12.775-39.58C108.993,303.307,105.912,302.474,102.963,302.474z"/>
	</g>
</g>
<g>
</g>
<g>
</g>
<g>
</g>
<g>
</g>
<g>
</g>
<g>
</g>
<g>
</g>
<g>
</g>
<g>
</g>
<g>
</g>
<g>
</g>
<g>
</g>
<g>
</g>
<g>
</g>
<g>
</g>
</svg>
