<?xml version="1.0" encoding="iso-8859-1"?>
<!-- Generator: Adobe Illustrator 28.0.0, SVG Export Plug-In . SVG Version: 6.00 Build 0)  -->
<svg xmlns="http://www.w3.org/2000/svg" xmlns:xlink="http://www.w3.org/1999/xlink" version="1.1" id="Capa_1" x="0px" y="0px" viewBox="0 0 512 512" style="enable-background:new 0 0 512 512;" xml:space="preserve">
<g>
	<g>
		<path style="fill:#605C5D;" d="M323.775,85.33c-0.985,0-1.981-0.29-2.853-0.894c-51.15-35.471-104.426-37.831-140.107-33.565    c-2.769,0.33-5.246-1.635-5.575-4.384c-0.328-2.75,1.635-5.246,4.384-5.575c53.643-6.411,104.481,5.787,147.014,35.282    c2.275,1.578,2.841,4.703,1.263,6.978C326.926,84.577,325.364,85.33,323.775,85.33z"/>
		<path style="fill:#B0B8C5;" d="M396.813,44.697c-20.788-20.787-87.011,17.025-116.177,35.357    c-14.436-2.401-33.057-3.386-54.381-3.29c-21.328-0.096-39.95,0.89-54.387,3.291c-29.177-18.346-95.395-56.132-116.17-35.357    c-20.632,20.633,2.925,77.276,15.023,102.515c-14.308,24.166-19.532,50.631-19.532,73.421c0,19.707,2.348,39.389,7.068,59.072    c9.217,38.415,39.589,67.913,78.304,75.756c6.468,1.308,12.937,2.465,19.406,3.49l-17.102,7.887    c-42.559,26.503-53.441,85.282,6.897,91.936c60.339,6.654,113.234-17.63,103.422-45.968c-3.393-9.801,2.943-29.287,11.736-49.638    c18.343-1.433,36.685-3.999,55.028-7.708c38.715-7.843,69.087-37.341,78.304-75.756c4.721-19.682,7.069-39.365,7.069-59.072    c0-22.785-5.221-49.243-19.521-73.403C393.868,122.015,417.453,65.337,396.813,44.697z"/>
		<g>
			<path style="fill:#90A1B4;" d="M247.423,90.829c0,32.62-9.491,59.046-21.156,59.046c-11.689,0-21.181-26.426-21.181-59.046     c0-4.471,0.175-8.817,0.524-12.988c13.762-0.624,27.525-0.624,41.288,0.024C247.249,82.037,247.423,86.383,247.423,90.829z"/>
			<g>
				<path style="fill:#90A1B4;" d="M201.965,80.114c0,32.595-9.467,59.046-21.156,59.046c-11.24,0-20.481-24.603-21.131-55.575      c7.268-1.898,14.786-3.247,22.48-4.021c6.594-0.649,13.188-1.174,19.782-1.524C201.965,78.74,201.965,79.414,201.965,80.114z"/>
				<path style="fill:#90A1B4;" d="M292.832,83.311c-0.6,31.096-9.841,55.849-21.131,55.849c-11.689,0-21.156-26.451-21.156-59.046      c0-0.7,0-1.374,0.025-2.073c7.568,0.399,15.161,1.024,22.73,1.823C279.969,80.563,286.488,81.737,292.832,83.311z"/>
			</g>
		</g>
		<path style="fill:#FFFFFF;" d="M80.033,94.877c0,0-3.372,7.643-3.922,16.21c-0.525,7.918,4.246,13.962,10.49,16.485    c13.113-14.911,29.299-27.1,47.582-35.568c-0.175-4.296-1.973-8.517-5.47-11.689c-14.037-12.763-33.445-26.526-47.182-20.931    C57.603,69.15,80.033,94.877,80.033,94.877z"/>
		<path style="fill:#67818D;" d="M400.704,40.79c-10.872-10.873-30.792-10.286-60.891,1.787    c-21.918,8.792-44.611,21.883-60.362,31.716c-13.849-2.113-31.652-3.135-53.171-3.047c-21.581-0.091-39.39,0.934-53.237,3.048    c-15.775-9.84-38.491-22.939-60.373-31.718c-30.095-12.073-50.011-12.66-60.882-1.787c-21.829,21.828-2.072,74.728,12.694,106.143    c-15.895,28.162-18.809,56.671-18.809,73.7c0,20.071,2.429,40.378,7.22,60.359c4.772,19.886,15.014,37.874,29.617,52.018    c14.631,14.17,32.943,23.803,52.959,27.858c0.891,0.18,1.785,0.338,2.676,0.513c-0.757,0.099-1.506,0.346-2.195,0.775    c-26.559,16.54-42,45.417-36.714,68.666c2.471,10.869,11.723,29.664,45.923,33.436c6.82,0.752,13.629,1.115,20.337,1.115    c36.528-0.001,69.901-10.765,83.693-28.042c6.537-8.189,8.338-17.294,5.21-26.329c-3.622-10.459-12.955-17.693-26.991-20.921    c-25.378-5.835-60.618,3.039-76.957,19.381c-2.155,2.154-2.155,5.646,0,7.801c2.153,2.153,5.646,2.154,7.801-0.001    c13.755-13.757,44.916-21.435,66.684-16.43c7.072,1.626,16.115,5.337,19.038,13.78c1.88,5.429,0.766,10.609-3.406,15.836    c-15.835,19.838-60.35,26.575-94.199,22.844c-20.312-2.24-33.23-11.089-36.373-24.916c-4.209-18.507,9.457-42.95,31.787-56.855    c2.586-1.61,3.377-5.013,1.767-7.599c-0.52-0.833-1.236-1.458-2.04-1.898c23.062,4.348,46.371,6.97,69.385,7.757    c0.064,0.002,0.127,0.003,0.191,0.003c2.96,0,5.408-2.348,5.51-5.328c0.104-3.044-2.28-5.597-5.325-5.701    c-24.416-0.834-49.184-3.762-73.612-8.7c-36.298-7.354-65.359-35.473-74.035-71.636c-4.59-19.139-6.917-38.58-6.917-57.786    c0-21.285,4.866-61.907,37.456-94.829c2.143-2.165,2.125-5.658-0.04-7.801c-2.166-2.143-5.657-2.126-7.801,0.04    c-5.686,5.743-10.584,11.699-14.818,17.743C52.21,92.734,47.703,60.476,59.588,48.591c11.466-11.467,48.419-0.333,97.751,29.051    c-8.925,2.58-17.478,5.694-25.429,9.27c-2.779,1.25-4.018,4.516-2.768,7.294c1.249,2.779,4.517,4.016,7.293,2.767    c7.708-3.467,16.031-6.481,24.737-8.959c13.866-3.936,35.766-5.872,65.108-5.735c29.295-0.143,51.19,1.798,65.055,5.734    c8.711,2.479,17.034,5.494,24.738,8.96c0.735,0.331,1.504,0.487,2.261,0.487c2.104,0,4.114-1.211,5.033-3.255    c1.25-2.778,0.011-6.044-2.767-7.293c-7.952-3.578-16.511-6.693-25.447-9.276c49.315-29.397,86.268-40.528,97.751-29.046    c11.866,11.866,7.365,44.123-11.897,87.193c-4.233-6.044-9.131-11.998-14.816-17.741c-2.145-2.166-5.636-2.183-7.801-0.04    c-2.165,2.143-2.183,5.636-0.04,7.801c32.59,32.921,37.456,73.544,37.456,94.829c0,19.209-2.327,38.65-6.917,57.785    c-8.676,36.165-37.737,64.283-74.034,71.637c-2.986,0.605-4.916,3.516-4.311,6.501c0.53,2.617,2.831,4.422,5.401,4.422    c0.363,0,0.732-0.036,1.101-0.111c20.014-4.055,38.325-13.688,52.956-27.858c14.604-14.144,24.845-32.131,29.617-52.018    c4.791-19.977,7.22-40.284,7.22-60.359c0-17.028-2.914-45.536-18.807-73.696C402.772,115.511,422.504,62.589,400.704,40.79z"/>
		<g>
			
				<ellipse transform="matrix(0.6829 -0.7305 0.7305 0.6829 -210.742 232.4931)" style="fill:#777677;" cx="162.423" cy="358.987" rx="18.635" ry="18.635"/>
		</g>
		<g>
			<path style="fill:#605C5D;" d="M345.065,241.181c0-10.846-8.793-19.639-19.638-19.639c-10.846,0-19.639,8.792-19.639,19.639     c0,10.846,8.793,19.638,19.639,19.638C336.272,260.82,345.065,252.027,345.065,241.181z"/>
			<path style="fill:#605C5D;" d="M196.677,241.181c0-10.846-8.793-19.639-19.639-19.639c-10.846,0-19.639,8.792-19.639,19.639     c0,10.846,8.793,19.638,19.639,19.638C187.885,260.82,196.677,252.027,196.677,241.181z"/>
		</g>
		<g>
			<g>
				<path style="fill:#90A1B4;" d="M375.12,275.165h-31.03c-3.046,0-5.516-2.47-5.516-5.516c0-3.046,2.47-5.516,5.516-5.516h31.03      c3.046,0,5.516,2.47,5.516,5.516C380.637,272.695,378.166,275.165,375.12,275.165z"/>
				<path style="fill:#90A1B4;" d="M369.477,304.317c-0.636,0-1.283-0.112-1.915-0.346l-25.388-9.404      c-2.857-1.058-4.315-4.231-3.257-7.088c1.058-2.856,4.229-4.316,7.088-3.257l25.388,9.404c2.857,1.058,4.315,4.231,3.257,7.088      C373.827,302.94,371.719,304.317,369.477,304.317z"/>
			</g>
			<g>
				<path style="fill:#90A1B4;" d="M158.376,275.165h-31.03c-3.046,0-5.516-2.47-5.516-5.516c0-3.046,2.47-5.516,5.516-5.516h31.03      c3.046,0,5.516,2.47,5.516,5.516C163.892,272.695,161.422,275.165,158.376,275.165z"/>
				<path style="fill:#90A1B4;" d="M132.988,304.317c-2.242,0-4.35-1.377-5.173-3.602c-1.059-2.857,0.4-6.03,3.257-7.088      l25.389-9.404c2.859-1.06,6.03,0.401,7.088,3.257c1.059,2.857-0.4,6.03-3.257,7.088l-25.389,9.404      C134.271,304.205,133.623,304.317,132.988,304.317z"/>
			</g>
		</g>
		<g>
			<path style="fill:#FFFFFF;" d="M312.949,202.843H296.67c-3.046,0-5.516-2.47-5.516-5.516c0-3.047,2.47-5.516,5.516-5.516h16.279     c3.046,0,5.516,2.47,5.516,5.516C318.465,200.374,315.995,202.843,312.949,202.843z"/>
			<path style="fill:#FFFFFF;" d="M205.795,202.843h-16.278c-3.046,0-5.516-2.47-5.516-5.516c0-3.047,2.47-5.516,5.516-5.516h16.278     c3.046,0,5.516,2.47,5.516,5.516C211.311,200.374,208.841,202.843,205.795,202.843z"/>
		</g>
		<g>
			<path style="fill:#67818D;" d="M287.997,298.059c-8.481,7.125-20.715,12.547-36.739,12.826     c-16.023-0.278-28.258-5.666-36.739-12.826c-14.946-12.582-18.143-30.586-9.35-35.314c11.818-9.245,25.199,4.449,46.088,4.067     c20.855,0.382,34.236-13.312,46.088-4.067C306.106,267.473,302.908,285.442,287.997,298.059z"/>
			<path style="fill:#FF7AA7;" d="M287.997,298.059c-8.481,7.125-20.715,12.547-36.739,12.826     c-16.023-0.278-28.258-5.666-36.739-12.826c8.481-7.195,20.715-12.582,36.739-12.861     C267.282,285.477,279.516,290.9,287.997,298.059z"/>
			<path style="fill:#67818D;" d="M301.249,258.845c-0.161-0.16-0.33-0.31-0.508-0.45c-9.129-7.122-18.855-4.064-28.261-1.107     c-4.969,1.562-10.063,3.166-15.731,3.764v-9.476h3.198c3.046,0,5.516-2.47,5.516-5.516c0-3.047-2.47-5.516-5.516-5.516h-17.429     c-3.046,0-5.516,2.47-5.516,5.516c0,3.047,2.47,5.516,5.516,5.516h3.199v9.467c-5.655-0.606-10.756-2.2-15.718-3.759     c-9.401-2.954-19.12-6.009-28.227,1.116c-0.176,0.138-0.344,0.286-0.502,0.445c-4.954,4.955-7.332,10.598-7.068,16.775     c0.37,8.636,6.011,17.604,16.76,26.654c7.408,6.254,20.397,13.782,40.201,14.125c0.032,0.001,0.064,0.001,0.096,0.001     c0.032,0,0.064,0,0.096-0.001c19.739-0.343,32.751-7.866,40.192-14.117c0.005-0.004,0.01-0.008,0.015-0.013     c10.723-9.073,16.343-18.068,16.703-26.732C308.517,269.461,306.091,263.688,301.249,258.845z M284.445,293.839     c-6.063,5.093-16.739,11.22-33.187,11.529c-16.505-0.309-27.152-6.435-33.186-11.528c-8.176-6.883-12.619-13.347-12.848-18.691     c-0.125-2.912,1.054-5.615,3.603-8.254c4.269-3.153,8.871-1.91,17.864,0.915c6.633,2.085,14.921,4.703,24.567,4.52     c9.667,0.167,17.905-2.433,24.531-4.516c9.002-2.829,13.611-4.076,17.904-0.917c2.507,2.6,3.669,5.28,3.548,8.182     C297.018,280.455,292.593,286.941,284.445,293.839z"/>
		</g>
		<g>
			<path style="fill:#777677;" d="M121.488,132.606c1.024,30.401-15.522,55.619-36.955,56.341c-7.07,0.238-31.74,1.07-38.81,1.308     c-21.433,0.722-39.64-23.325-40.665-53.725C4.035,106.13,20.58,80.874,42.013,80.152c7.07-0.238,31.74-1.07,38.81-1.308     C102.256,78.121,120.464,102.206,121.488,132.606z"/>
			<path style="fill:#605C5D;" d="M186.059,358.19c-0.213-6.314-2.872-12.167-7.486-16.48c-4.615-4.313-10.64-6.569-16.946-6.359     c-6.314,0.213-12.167,2.871-16.481,7.486c-4.313,4.614-6.572,10.633-6.36,16.946c0.012,0.35,0.034,0.697,0.061,1.043     c-40.567,7.411-70.21-0.788-85.895-23.851c-11.206-16.477-15.252-40.775-11.395-68.417c3.515-25.193,13.53-52.029,27.563-74.073     l15.58-0.525c24.163-0.814,42.914-28.413,41.798-61.522c-0.53-15.729-5.393-30.434-13.691-41.408     c-4.755-6.287-10.333-10.952-16.375-13.833c25.064-13.393,55.078-22.823,84.381-26.326c2.749-0.329,4.712-2.825,4.384-5.574     c-0.328-2.749-2.805-4.711-5.575-4.384c-34.33,4.104-69.621,16.057-97.514,32.919c-0.485-0.005-0.969-0.016-1.456,0.001     L41.845,75.14C17.681,75.954-1.069,103.57,0.047,136.699c0.53,15.727,5.393,30.427,13.693,41.391     c8.42,11.123,19.399,17.195,31.024,17.195c0.375,0,0.751-0.006,1.127-0.019l11.221-0.378     C30.968,239.578,18.218,303.733,44.66,342.615c10.29,15.13,29.894,30.927,66.875,30.927c9.005,0,19.05-0.946,30.231-3.057     c4.061,7.268,11.83,12.152,20.646,12.152c0.268,0,0.538-0.005,0.807-0.014c6.314-0.212,12.167-2.872,16.481-7.487     C184.013,370.522,186.272,364.504,186.059,358.19z M45.555,185.244c-8.721,0.277-17.151-4.398-23.819-13.206     c-7.061-9.329-11.204-21.999-11.665-35.676c-0.931-27.602,13.475-50.57,32.112-51.198c8.701-0.276,17.146,4.404,23.817,13.223     c7.063,9.339,11.206,22.016,11.667,35.697c0.091,2.71,2.317,4.846,5.009,4.846c0.057,0,0.115-0.001,0.171-0.003     c2.769-0.093,4.936-2.413,4.843-5.181c-0.53-15.729-5.393-30.434-13.691-41.408c-2.312-3.057-4.821-5.72-7.479-7.994     l14.471-0.488c0.257-0.008,0.511-0.013,0.767-0.013c8.418,0,16.578,4.676,23.051,13.236c7.064,9.339,11.207,22.016,11.668,35.696     c0.929,27.582-13.476,50.532-32.113,51.16L45.555,185.244z M162.882,372.6c-7.536,0.251-13.818-5.648-14.072-13.154     c-0.122-3.637,1.178-7.103,3.662-9.761c2.485-2.657,5.855-4.188,9.492-4.31c0.157-0.005,0.311-0.008,0.465-0.008     c7.3,0,13.358,5.811,13.606,13.161C176.288,366.034,170.387,372.347,162.882,372.6z"/>
		</g>
	</g>
	<g>
		<path style="fill:#777677;" d="M150.56,446.076h78.498l25.135-101.025c2.13-8.562,9.818-14.572,18.64-14.572l0,0h198.942    c12.486,0,21.653,11.726,18.641,23.843l-26.377,106.093c-3.881,15.611-17.899,26.571-33.986,26.571H258.491h0H218.88l0.003-0.011    H150.56c-11.294,0-20.449-9.156-20.449-20.45C130.111,455.232,139.266,446.076,150.56,446.076z"/>
		<path style="fill:#605C5D;" d="M490.858,334.767c-4.623-5.912-11.578-9.303-19.082-9.303H272.833c-0.039,0-0.074,0.01-0.113,0.011    c-0.274,0.001-0.548-0.003-0.823,0.007c-10.698,0.399-20.044,8.209-22.728,18.99l-24.03,96.588h-73.722    c-14.098,0-25.901,11.074-26.31,24.685c-0.209,6.953,2.341,13.528,7.177,18.512c4.838,4.985,11.329,7.732,18.275,7.732h67.991    c0.11,0.007,0.219,0.011,0.329,0.011h15.573h195.6c18.429,0,34.406-12.491,38.853-30.376l26.377-106.093    C497.093,348.248,495.48,340.68,490.858,334.767z M485.549,353.112l-26.377,106.093c-3.333,13.405-15.307,22.766-29.12,22.766    H259.299c4.701-4.54,8.19-10.394,9.859-17.103c0.668-2.689-0.969-5.408-3.656-6.077c-2.69-0.667-5.409,0.969-6.077,3.656    c-2.858,11.496-13.127,19.524-24.972,19.524l-83.893-0.011c-4.211,0-8.145-1.665-11.077-4.688    c-2.931-3.021-4.477-7.007-4.35-11.225c0.247-8.248,7.552-14.957,16.284-14.957h77.642c2.304,0,4.311-1.569,4.867-3.804    l24.977-100.392c1.611-6.472,7.109-11.156,13.369-11.39c4.516-0.158,8.738,1.738,11.576,5.23    c2.841,3.497,3.847,8.008,2.761,12.377l-16.126,64.862c-0.668,2.688,0.969,5.407,3.657,6.076c2.689,0.669,5.408-0.969,6.076-3.657    l16.126-64.862c1.743-7.013,0.326-14.239-3.88-20.037h179.315c4.397,0,8.472,1.986,11.181,5.451    C485.665,344.41,486.61,348.844,485.549,353.112z"/>
	</g>
	<path style="fill:#FFFFFF;" d="M506.484,140.171V78.009c0-28.991-23.502-52.494-52.494-52.494H353.664   c-28.991,0-52.494,23.502-52.494,52.494v62.162c0,28.991,23.502,52.494,52.494,52.494h28.308c0,25.027,9.766,45.309,21.83,45.309   c12.064,0,21.855-20.281,21.855-45.309h28.333C482.982,192.665,506.484,169.162,506.484,140.171z"/>
	<path style="fill:#E2E2E2;" d="M403.802,243.49c-14.585,0-25.814-19.12-27.202-45.309h-22.936c-31.986,0-58.01-26.023-58.01-58.01   V78.009c0-31.987,26.023-58.01,58.01-58.01H453.99c31.986,0,58.01,26.023,58.01,58.01v62.162c0,31.987-26.023,58.01-58.01,58.01   h-22.962C429.638,224.369,418.4,243.49,403.802,243.49z M353.664,31.032c-25.903,0-46.978,21.074-46.978,46.978v62.162   c0,25.904,21.075,46.978,46.978,46.978h28.308c3.046,0,5.516,2.47,5.516,5.516c0,24.654,9.503,39.793,16.314,39.793   c6.823,0,16.339-15.139,16.339-39.793c0-3.047,2.47-5.516,5.516-5.516h28.333c25.903,0,46.978-21.074,46.978-46.978V78.009   c0-25.904-21.074-46.978-46.978-46.978H353.664z"/>
	<g>
		<path style="fill:#605C5D;" d="M451.486,73.902h-81.962c-2.77,0-5.015-2.245-5.015-5.015c0-2.769,2.245-5.015,5.015-5.015h81.962    c2.77,0,5.015,2.245,5.015,5.015C456.5,71.657,454.256,73.902,451.486,73.902z"/>
		<path style="fill:#605C5D;" d="M451.486,99.155h-95.317c-2.77,0-5.015-2.245-5.015-5.015c0-2.769,2.245-5.015,5.015-5.015h95.317    c2.77,0,5.015,2.245,5.015,5.015C456.5,96.91,454.256,99.155,451.486,99.155z"/>
		<path style="fill:#605C5D;" d="M451.486,124.409h-95.317c-2.77,0-5.015-2.245-5.015-5.015c0-2.769,2.245-5.015,5.015-5.015h95.317    c2.77,0,5.015,2.245,5.015,5.015C456.5,122.163,454.256,124.409,451.486,124.409z"/>
		<path style="fill:#605C5D;" d="M411.056,149.662h-54.887c-2.77,0-5.015-2.245-5.015-5.015c0-2.769,2.245-5.015,5.015-5.015h54.887    c2.77,0,5.015,2.245,5.015,5.015C416.07,147.416,413.826,149.662,411.056,149.662z"/>
	</g>
</g>
<g>
</g>
<g>
</g>
<g>
</g>
<g>
</g>
<g>
</g>
<g>
</g>
<g>
</g>
<g>
</g>
<g>
</g>
<g>
</g>
<g>
</g>
<g>
</g>
<g>
</g>
<g>
</g>
<g>
</g>
</svg>
