<?xml version="1.0" encoding="iso-8859-1"?>
<!-- Generator: Adobe Illustrator 27.5.0, SVG Export Plug-In . SVG Version: 6.00 Build 0)  -->
<svg xmlns="http://www.w3.org/2000/svg" xmlns:xlink="http://www.w3.org/1999/xlink" version="1.1" id="Layer_1" x="0px" y="0px" viewBox="0 0 512 512" style="enable-background:new 0 0 512 512;" xml:space="preserve">
<g>
	<path style="fill:#B1B9C6;" d="M230.319,281.7c-37.927,0-70.931,13.427-87.957,33.229l-8.055-8.7   c-58.915,49.75-48.919,91.137-21.301,102.584c17.991,7.457,54.704,4.475,76.463-4.873c12.477,3.554,26.301,5.532,40.85,5.532   c55.358,0,112.131-28.603,112.131-63.886C342.45,310.302,285.677,281.7,230.319,281.7z"/>
	<polygon style="fill:#FFFFFF;" points="362.664,506.49 109.87,506.49 135.708,376.604 336.827,376.604  "/>
	<path style="fill:#00D4D7;" d="M227.625,489.608c-17.468,0-33.976-3.355-46.486-9.445c-13.77-6.706-21.353-16.087-21.353-26.415   c0-13.622,13.217-25.452,35.355-31.644c2.929-0.819,5.971,0.892,6.791,3.823c0.82,2.93-0.891,5.971-3.823,6.791   c-16.585,4.638-27.303,12.894-27.303,21.03c0,11.749,23.334,24.84,56.818,24.84c33.484,0,56.819-13.091,56.819-24.84   c0-7.744-9.988-15.786-25.447-20.488c-2.912-0.885-4.553-3.963-3.668-6.875c0.885-2.912,3.965-4.555,6.875-3.668   c20.827,6.335,33.26,17.936,33.26,31.031c0,10.329-7.583,19.71-21.353,26.415C261.602,486.253,245.092,489.608,227.625,489.608z"/>
	<path style="fill:#E3E3E3;" d="M362.664,512H109.87c-1.65,0-3.213-0.74-4.26-2.015c-1.046-1.276-1.467-2.953-1.145-4.571   l25.838-129.886c0.513-2.578,2.776-4.435,5.405-4.435h201.118c2.629,0,4.892,1.857,5.405,4.435l25.838,129.886   c0.322,1.618-0.099,3.295-1.145,4.571C365.877,511.26,364.314,512,362.664,512z M116.584,500.98H355.95l-23.646-118.865H140.23   L116.584,500.98z"/>
	<path style="fill:#B1B9C6;" d="M340.874,330.071c23.619,35.803,22.926,88.99-27.328,114.167   c-58.046,29.081-85.061-12.736-59.143-27.276c25.919-14.54,58.963-30.401,39.627-71.817L340.874,330.071z"/>
	<g>
		<path style="fill:#B1B9C6;" d="M106.42,9.604c21.516-17.205,79.273,24.877,104.537,44.974c13.694-0.739,31.139,0.273,50.989,2.573    c19.874,2.122,37.116,4.971,50.313,8.704c29.076-14.062,94.666-42.39,111.862-20.887c17.077,21.355-10.736,71.669-24.62,93.921    c10.82,23.99,12.942,49.18,10.58,70.406c-2.043,18.354-6.27,36.442-12.707,54.284c-12.566,34.823-43.913,59.148-80.783,62.438    c-28.472,2.53-56.631,2.246-84.477-0.854c-27.846-3.1-55.378-9.014-82.597-17.743c-35.244-11.318-60.474-41.94-65.076-78.674    c-2.356-18.821-2.503-37.396-0.46-55.75c2.362-21.221,9.968-45.322,25.791-66.341C101.147,81.921,85.058,26.688,106.42,9.604z"/>
		<g>
			<path style="fill:#678490;" d="M202.375,272.121c7.274,7.405,18.202,13.557,33.124,15.25c14.972,1.173,26.867-2.758,35.418-8.678     c15.067-10.4,19.66-26.909,11.88-32.106c-10.197-9.681-23.905,1.896-43.357-0.329c-19.488-1.509-30.746-15.48-42.629-7.916     C188.219,241.97,189.594,259.018,202.375,272.121z"/>
			<path style="fill:#FD80A6;" d="M202.375,272.121c7.274,7.405,18.202,13.557,33.124,15.25c14.972,1.173,26.867-2.758,35.418-8.678     c-7.268-7.47-18.199-13.59-33.121-15.283C222.825,262.237,210.927,266.201,202.375,272.121z"/>
		</g>
		<g>
			<path style="fill:#91A2B5;" d="M240.773,68.057c-3.382,30.381,2.719,55.977,13.582,57.187     c10.887,1.212,22.466-22.417,25.848-52.798c0.464-4.164,0.751-8.23,0.858-12.151c-12.753-2.008-25.571-3.435-38.456-4.258     C241.848,59.886,241.234,63.916,240.773,68.057z"/>
			<g>
				<path style="fill:#91A2B5;" d="M284.223,62.79c-3.379,30.358,2.695,55.975,13.583,57.187      c10.468,1.165,21.626-20.79,25.442-49.569c-6.573-2.521-13.435-4.557-20.52-6.076c-6.074-1.288-12.161-2.461-18.266-3.47      C284.365,61.51,284.295,62.138,284.223,62.79z"/>
				<path style="fill:#91A2B5;" d="M199.261,56.347c-2.665,29.024,3.376,53.036,13.891,54.206      c10.887,1.212,22.446-22.442,25.825-52.8c0.073-0.652,0.142-1.28,0.192-1.934c-7.09-0.413-14.227-0.618-21.359-0.658      C211.526,55.122,205.333,55.539,199.261,56.347z"/>
			</g>
		</g>
		<path style="fill:#FFFFFF;" d="M123.899,58.864c0,0-3.933,6.769-5.333,14.691c-1.309,7.32,2.507,13.444,8.061,16.44    c13.759-12.528,30.097-22.202,48.003-28.193c0.283-4.019-0.955-8.137-3.883-11.454c-11.751-13.342-28.399-28.173-41.774-24.385    C105.677,32.578,123.899,58.864,123.899,58.864z"/>
		<path style="fill:#FFFFFF;" d="M396.255,89.18c0,0,2.348,7.468,1.972,15.504c-0.332,7.428-5.402,12.563-11.479,14.266    c-10.668-15.247-24.478-28.277-40.629-38.059c0.608-3.983,2.721-7.728,6.306-10.32c14.397-10.432,33.899-21.238,46.114-14.603    C419.812,67.545,396.255,89.18,396.255,89.18z"/>
		<path style="fill:#678490;" d="M428.435,41.52c-9.092-11.37-27.818-12.925-57.246-4.762c-21.26,5.9-43.735,15.719-59.456,23.247    c-12.675-3.396-29.122-6.189-49.152-8.329c-20.036-2.32-36.699-3.213-49.812-2.689c-13.657-10.789-33.402-25.301-52.88-35.75    C132.97-1.201,114.359-3.796,102.989,5.295c-22.681,18.139-9.857,69.484,0.632,100.386c-17.684,24.6-23.349,50.839-25.115,66.705    c-2.084,18.722-1.927,37.914,0.469,57.045c3.95,31.532,22.637,59.063,49.438,74.601c-8.132,7.055-15.234,14.212-21.115,21.309    c-1.942,2.343-1.617,5.818,0.726,7.759c1.028,0.853,2.275,1.268,3.514,1.268c1.584,0,3.156-0.679,4.245-1.994    c6.026-7.271,13.455-14.651,22.079-21.934c0.403-0.34,0.722-0.738,1.002-1.155c2.92,1.261,5.908,2.4,8.972,3.384    c5.278,1.693,10.654,3.306,15.977,4.795c0.496,0.139,0.996,0.204,1.487,0.204c2.41,0,4.623-1.593,5.304-4.027    c0.82-2.93-0.891-5.971-3.823-6.791c-5.191-1.452-10.432-3.025-15.578-4.674c-32.918-10.572-56.978-39.663-61.293-74.113    c-2.287-18.271-2.439-36.593-0.451-54.456c2.201-19.771,10.922-57.002,44.591-84.208c2.367-1.913,2.736-5.382,0.823-7.75    c-1.914-2.367-5.384-2.736-7.75-0.823c-5.732,4.632-10.801,9.525-15.283,14.567c-13.253-41.665-14.081-71.804-1.969-81.489    c11.706-9.363,44.552,4.66,87.002,36.731c-8.33,1.468-16.388,3.426-23.952,5.865c-2.897,0.933-4.488,4.039-3.553,6.935    c0.933,2.895,4.036,4.486,6.935,3.554c7.521-2.425,15.57-4.366,23.919-5.768c13.292-2.225,33.846-1.749,61.141,1.411    c27.274,2.913,47.43,6.972,59.902,12.062c7.839,3.205,15.264,6.868,22.067,10.888c0.88,0.52,1.845,0.767,2.798,0.767    c1.884,0,3.721-0.968,4.749-2.708c1.548-2.62,0.679-6-1.941-7.547c-6.835-4.038-14.246-7.727-22.042-10.989    c48.467-21.928,83.587-28.384,92.932-16.699c9.703,12.134,2.262,41.353-19.856,79.064c-3.264-5.905-7.133-11.794-11.708-17.574    c-1.887-2.387-5.355-2.791-7.74-0.901c-2.386,1.888-2.79,5.354-0.901,7.74c26.863,33.943,27.183,72.181,24.983,91.953    c-1.99,17.867-6.167,35.707-12.416,53.023c-11.786,32.659-41.652,55.747-76.087,58.82c-10.649,0.946-21.397,1.5-31.948,1.646    c-3.044,0.041-5.476,2.542-5.434,5.584c0.041,3.017,2.5,5.435,5.507,5.435c0.026,0,0.052,0,0.077-0.001    c10.826-0.149,21.852-0.716,32.776-1.687c5.482-0.489,10.856-1.445,16.088-2.803c14.239,18.914,20.273,43.28,15.766,64.414    c-4.254,19.951-17.344,35.922-37.856,46.187c-19.208,9.629-32.947,10.217-41.085,9.016c-8.653-1.278-15.578-5.356-18.525-10.908    c-3.15-5.936-0.994-11.93,5.628-15.644c1.187-0.666,2.388-1.335,3.599-2.009c24.873-13.837,58.94-32.789,38.324-76.941    c-1.288-2.758-4.566-3.95-7.324-2.661c-2.757,1.288-3.949,4.566-2.661,7.324c16.272,34.849-7.999,48.353-33.696,62.648    c-1.223,0.68-2.436,1.355-3.634,2.027c-11.849,6.646-15.949,19.156-9.971,30.422c4.651,8.764,14.365,14.83,26.65,16.644    c2.6,0.384,5.291,0.574,8.059,0.574c12.045,0,25.555-3.614,39.571-10.638c29.83-14.928,40.229-37.465,43.7-53.743    c4.913-23.041-1.013-49.315-15.515-70.266c26.698-10.365,48.344-31.952,58.358-59.699c6.541-18.13,10.916-36.818,13.001-55.546    c1.766-15.868,2.009-42.713-9.834-70.6C422.774,111.479,446.598,64.235,428.435,41.52z"/>
		<g>
			<path style="fill:#605C5D;" d="M155.697,216.84c1.124-10.102,10.225-17.379,20.326-16.255     c10.102,1.124,17.379,10.225,16.255,20.327c-1.124,10.101-10.225,17.379-20.327,16.255     C161.85,236.042,154.573,226.941,155.697,216.84z"/>
			<path style="fill:#605C5D;" d="M293.9,232.223c1.125-10.102,10.225-17.379,20.327-16.255     c10.102,1.124,17.379,10.225,16.255,20.327c-1.124,10.102-10.225,17.379-20.327,16.255     C300.053,251.425,292.775,242.325,293.9,232.223z"/>
		</g>
		<g>
			<g>
				<path style="fill:#91A2B5;" d="M153.661,248.965c-0.203,0-0.409-0.011-0.616-0.034l-28.9-3.217      c-3.024-0.337-5.204-3.061-4.867-6.085c0.337-3.024,3.059-5.21,6.086-4.867l28.9,3.217c3.024,0.337,5.204,3.061,4.866,6.086      C158.817,246.882,156.431,248.965,153.661,248.965z"/>
				<path style="fill:#91A2B5;" d="M126.983,273.482c-2.471,0-4.72-1.674-5.343-4.181c-0.735-2.954,1.063-5.943,4.016-6.677      l24.621-6.126c2.954-0.741,5.943,1.064,6.677,4.016c0.735,2.954-1.064,5.943-4.016,6.677l-24.621,6.126      C127.87,273.429,127.423,273.482,126.983,273.482z"/>
			</g>
			<g>
				<path style="fill:#91A2B5;" d="M355.529,271.434c-0.204,0-0.409-0.011-0.616-0.034l-28.901-3.217      c-3.024-0.337-5.204-3.061-4.867-6.086c0.337-3.025,3.061-5.208,6.086-4.866l28.901,3.217c3.024,0.337,5.204,3.061,4.866,6.086      C360.685,269.351,358.299,271.434,355.529,271.434z"/>
				<path style="fill:#91A2B5;" d="M347.241,297.999c-0.832,0-1.676-0.189-2.469-0.587l-22.671-11.389      c-2.72-1.367-3.817-4.679-2.451-7.397c1.366-2.719,4.679-3.816,7.397-2.451l22.671,11.389c2.72,1.367,3.817,4.679,2.451,7.398      C351.202,296.887,349.258,297.999,347.241,297.999z"/>
			</g>
		</g>
		<g>
			<path style="fill:#FFFFFF;" d="M205.323,186.524c-0.204,0-0.409-0.011-0.616-0.034l-15.161-1.688     c-3.024-0.337-5.204-3.061-4.867-6.085c0.337-3.025,3.055-5.208,6.085-4.866l15.161,1.688c3.024,0.337,5.204,3.061,4.866,6.086     C210.479,184.441,208.093,186.524,205.323,186.524z"/>
			<path style="fill:#FFFFFF;" d="M305.122,197.632c-0.204,0-0.409-0.011-0.616-0.034l-15.161-1.688     c-3.024-0.337-5.204-3.061-4.866-6.086c0.336-3.024,3.062-5.209,6.086-4.866l15.161,1.688c3.024,0.337,5.204,3.061,4.866,6.085     C310.278,195.549,307.892,197.632,305.122,197.632z"/>
		</g>
		<path style="fill:#678490;" d="M287.047,243.081c-0.142-0.172-0.294-0.336-0.456-0.489c-7.988-7.584-17.417-5.587-26.536-3.652    c-4.505,0.955-9.125,1.924-14.113,2.072l2.12-12.239l2.963,0.33c0.207,0.023,0.413,0.034,0.616,0.034    c2.77,0,5.156-2.083,5.469-4.901c0.337-3.024-1.842-5.749-4.867-6.086l-16.233-1.807c-3.033-0.338-5.749,1.842-6.085,4.866    c-0.338,3.024,1.842,5.749,4.867,6.085l2.298,0.256l-2.166,12.507c-5.206-1.062-9.811-2.999-14.294-4.895    c-8.589-3.632-17.473-7.391-26.776-1.468c-0.191,0.121-0.374,0.254-0.548,0.398c-5.027,4.146-7.85,9.398-8.163,15.187    c-0.443,8.215,4.027,17.193,13.288,26.688c0.005,0.004,0.009,0.009,0.014,0.013c6.419,6.537,17.951,14.768,36.434,16.864    c0.064,0.007,0.127,0.014,0.191,0.019c1.959,0.154,3.852,0.225,5.683,0.225c15.569,0,26.577-5.21,33.295-9.862    c10.925-7.54,17.038-15.482,18.168-23.602C293.017,253.871,291.23,248.15,287.047,243.081z M281.301,258.105    c-0.668,4.798-5.468,10.499-13.52,16.058c-6.032,4.176-16.443,8.898-31.755,7.722c-15.212-1.748-24.551-8.366-29.712-13.619    c-6.818-6.992-10.43-13.523-10.166-18.39c0.141-2.613,1.419-4.924,3.902-7.056c4.141-2.454,8.267-0.9,16.287,2.492    c6.016,2.545,13.498,5.71,22.579,6.432c9.067,1.02,17.028-0.667,23.425-2.024c8.508-1.804,12.849-2.547,16.426,0.646    C280.834,252.97,281.663,255.505,281.301,258.105z"/>
	</g>
	<g>
		<path style="fill:#FD80A6;" d="M192.165,432.321l4.847,1.655c4.955,1.692,10.385-0.646,12.562-5.407l2.13-4.658    c3.504-7.665,3.602-16.454,0.27-24.195l-40.182-93.345c-4.466-10.374-16.496-15.164-26.87-10.698l0,0    c-10.374,4.466-15.164,16.496-10.698,26.87l40.182,93.345C177.738,423.628,184.19,429.598,192.165,432.321z"/>
		<path style="fill:#FE518E;" d="M200.339,440.044c-1.695,0-3.417-0.276-5.108-0.853l-4.846-1.654c-0.001,0-0.001,0-0.001,0    c-9.431-3.221-17.1-10.318-21.04-19.471l-40.181-93.345c-2.742-6.369-2.839-13.424-0.275-19.867    c2.565-6.443,7.486-11.501,13.855-14.242c13.146-5.658,28.45,0.432,34.11,13.58l40.181,93.345    c3.941,9.154,3.825,19.602-0.32,28.665l-2.129,4.657C211.961,436.601,206.326,440.044,200.339,440.044z M193.946,427.107    l4.846,1.654c2.288,0.781,4.767-0.287,5.771-2.484l2.129-4.657c2.852-6.237,2.932-13.427,0.22-19.726l-40.181-93.345    c-3.258-7.566-12.062-11.072-19.63-7.815c-3.666,1.578-6.497,4.489-7.973,8.196c-1.476,3.708-1.421,7.768,0.158,11.433    l40.181,93.345C182.178,420.007,187.456,424.891,193.946,427.107L193.946,427.107z"/>
	</g>
	<path style="fill:#B1B9C6;" d="M113.006,408.813c27.619,11.447,99.371-1.699,93.386-24.726   c-7.019-27.004-75.968-28.517-75.968-28.517L113.006,408.813z"/>
	<path style="fill:#678490;" d="M140.33,418.535c-11.297,0-21.767-1.454-29.434-4.632c-12.184-5.049-20.949-15.121-24.05-27.631   c-4.46-17.999,2.803-39.638,20.451-60.931c1.94-2.343,5.415-2.668,7.758-0.726c2.343,1.942,2.668,5.415,0.726,7.759   c-15.359,18.531-21.836,36.731-18.239,51.249c2.284,9.212,8.524,16.351,17.572,20.101c20.368,8.442,67.364,2.245,82.436-10.869   c4.425-3.85,3.759-6.415,3.507-7.38c-4.344-16.712-45.706-23.832-70.757-24.394c-3.042-0.069-5.454-2.59-5.386-5.632   c0.067-3.001,2.519-5.388,5.506-5.388c0.041,0,0.081,0,0.123,0.001c7.483,0.164,73.338,2.475,81.18,32.64   c1.201,4.624,0.973,11.581-6.94,18.467C192.491,411.865,164.519,418.534,140.33,418.535z"/>
</g>
<g>
</g>
<g>
</g>
<g>
</g>
<g>
</g>
<g>
</g>
<g>
</g>
<g>
</g>
<g>
</g>
<g>
</g>
<g>
</g>
<g>
</g>
<g>
</g>
<g>
</g>
<g>
</g>
<g>
</g>
</svg>
