<?xml version="1.0" encoding="iso-8859-1"?>
<!-- Generator: Adobe Illustrator 27.5.0, SVG Export Plug-In . SVG Version: 6.00 Build 0)  -->
<svg xmlns="http://www.w3.org/2000/svg" xmlns:xlink="http://www.w3.org/1999/xlink" version="1.1" id="Layer_1" x="0px" y="0px" viewBox="0 0 512 512" style="enable-background:new 0 0 512 512;" xml:space="preserve">
<g>
	<g>
		<path style="fill:#B1B9C6;" d="M389.522,11.524c-20.411-20.411-85.436,16.717-114.075,34.717    c-14.175-2.357-32.459-3.325-53.397-3.231c-20.942-0.094-39.227,0.875-53.403,3.232C139.999,28.228,74.979-8.875,54.58,11.524    c-20.259,20.259,2.872,75.878,14.751,100.659c-14.049,23.728-19.178,49.715-19.178,72.092c0,19.35,2.305,38.676,6.94,58.003    c8.623,35.939,36.109,63.914,71.565,73.138c-11.856,14.025-18.731,30.7-18.731,48.592c0,49.821,53.3,90.208,119.049,90.208    s119.049-40.388,119.049-90.208c0-19.389-8.075-37.348-21.812-52.055c30.188-11.653,53.069-37.466,60.797-69.675    c4.635-19.326,6.941-38.652,6.941-58.003c0-22.372-5.127-48.352-19.168-72.075C386.631,87.443,409.789,31.791,389.522,11.524z"/>
		<g>
			<path style="fill:#91A2B5;" d="M242.836,56.822c0,32.03-9.32,57.978-20.773,57.978c-11.478,0-20.797-25.948-20.797-57.978     c0-4.39,0.172-8.657,0.515-12.753c13.513-0.613,27.027-0.613,40.54,0.024C242.665,48.189,242.836,52.456,242.836,56.822z"/>
			<g>
				<path style="fill:#91A2B5;" d="M198.2,46.3c0,32.006-9.295,57.978-20.773,57.978c-11.036,0-20.111-24.157-20.748-54.569      c7.137-1.864,14.519-3.188,22.073-3.948c6.474-0.638,12.949-1.153,19.424-1.496C198.2,44.951,198.2,45.613,198.2,46.3z"/>
				<path style="fill:#91A2B5;" d="M287.423,49.44c-0.589,30.534-9.663,54.838-20.749,54.838c-11.478,0-20.773-25.972-20.773-57.978      c0-0.687,0-1.349,0.025-2.036c7.431,0.392,14.887,1.005,22.318,1.79C274.793,46.742,281.194,47.894,287.423,49.44z"/>
			</g>
		</g>
		<g>
			<path style="fill:#678490;" d="M64.366,114.576C49.768,84.116,28.58,29.717,50.673,7.622     C61.379-3.085,80.965-2.516,110.556,9.357c22.292,8.942,45.485,22.46,61.016,32.225l-5.866,9.33     C111.65,16.924,70.56,3.325,58.466,15.414c-12.445,12.447-6.525,47.736,15.838,94.4L64.366,114.576z"/>
			<path style="fill:#678490;" d="M379.745,114.572l-9.942-4.755c22.327-46.688,28.238-81.979,15.815-94.404     c-12.111-12.108-53.2,1.492-107.236,35.497l-5.87-9.328c15.505-9.757,38.676-23.269,61.008-32.227     c29.596-11.871,49.186-12.44,59.89-1.734C415.47,29.682,394.317,84.099,379.745,114.572z"/>
		</g>
		<path style="fill:#FFFFFF;" d="M365.61,60.796c0,0,3.311,7.505,3.85,15.917c0.515,7.774-4.169,13.709-10.3,16.186    c-12.876-14.641-28.769-26.609-46.721-34.924c0.172-4.218,1.938-8.363,5.371-11.478c13.783-12.532,32.839-26.046,46.328-20.552    C387.634,35.535,365.61,60.796,365.61,60.796z"/>
		<path style="fill:#FFFFFF;" d="M78.475,60.796c0,0-3.311,7.505-3.851,15.917c-0.515,7.774,4.169,13.709,10.3,16.186    C97.8,78.258,113.693,66.29,131.646,57.976c-0.172-4.218-1.938-8.363-5.371-11.478c-13.783-12.532-32.84-26.046-46.329-20.552    C56.451,35.535,78.475,60.796,78.475,60.796z"/>
		<path style="fill:#678490;" d="M275.399,327.811c-2.744,0-5.12-2.048-5.462-4.841c-0.37-3.021,1.779-5.77,4.799-6.139    c11.376-1.394,22.914-3.267,34.294-5.567c35.603-7.213,64.109-34.795,72.62-70.27c4.505-18.78,6.789-37.862,6.789-56.718    c0-20.884-4.775-60.744-36.751-93.047c-2.141-2.162-2.123-5.651,0.04-7.793c2.162-2.14,5.65-2.123,7.793,0.04    c34.75,35.104,39.938,78.222,39.938,100.799c0,19.72-2.386,39.667-7.092,59.289c-4.689,19.544-14.754,37.221-29.107,51.122    c-14.379,13.926-32.376,23.393-52.045,27.378c-11.66,2.357-23.482,4.276-35.139,5.704    C275.849,327.797,275.622,327.811,275.399,327.811z"/>
		<path style="fill:#678490;" d="M312.464,63.427c-0.756,0-1.523-0.156-2.258-0.486c-7.56-3.401-15.728-6.359-24.278-8.794    c-13.606-3.863-35.112-5.757-63.852-5.627c-28.833-0.12-50.295,1.766-63.905,5.629c-8.544,2.431-16.713,5.39-24.275,8.792    c-2.775,1.249-6.038,0.011-7.286-2.764c-1.248-2.776-0.011-6.038,2.764-7.286c8.048-3.621,16.723-6.764,25.783-9.343    c14.608-4.146,37.134-6.194,66.918-6.048c29.77-0.114,52.26,1.901,66.865,6.046c9.067,2.581,17.741,5.724,25.787,9.344    c2.775,1.248,4.012,4.51,2.764,7.286C316.574,62.217,314.565,63.427,312.464,63.427z"/>
		<g>
			<g>
				<path style="fill:#91A2B5;" d="M343.697,240.486h-30.469c-3.043,0-5.51-2.468-5.51-5.51c0-3.043,2.467-5.51,5.51-5.51h30.469      c3.043,0,5.51,2.467,5.51,5.51C349.207,238.018,346.739,240.486,343.697,240.486z"/>
			</g>
			<g>
				<path style="fill:#91A2B5;" d="M130.875,240.486h-30.47c-3.043,0-5.51-2.468-5.51-5.51c0-3.043,2.467-5.51,5.51-5.51h30.47      c3.043,0,5.51,2.467,5.51,5.51C136.385,238.018,133.918,240.486,130.875,240.486z"/>
				<path style="fill:#91A2B5;" d="M105.947,269.11c-2.24,0-4.345-1.376-5.168-3.599c-1.058-2.854,0.399-6.024,3.253-7.081      l24.929-9.233c2.857-1.058,6.025,0.4,7.08,3.253c1.058,2.854-0.399,6.024-3.253,7.081l-24.929,9.233      C107.228,268.999,106.582,269.11,105.947,269.11z"/>
			</g>
		</g>
		<g>
			<path style="fill:#678490;" d="M253.41,237.862c-0.025,3.04-0.49,5.96-1.325,8.731c-1.03,3.409-2.6,6.597-4.66,9.417     c-3.212,4.488-7.578,8.069-12.655,10.35c-4.047,1.814-8.559,2.82-13.317,2.746c-10.399-0.122-19.571-5.248-25.237-13.071     c-2.992-4.121-5.003-8.977-5.739-14.225c-0.221-1.521-0.319-3.09-0.294-4.684c0.049-4.121,0.882-7.432,2.33-10.105     c2.87-5.151,8.118-7.849,14.715-9.173c4.415-0.883,9.467-1.128,14.838-1.054c13.342,0.147,24.722,2.183,29.259,10.938     C252.748,230.431,253.459,233.766,253.41,237.862z"/>
			<path style="fill:#FD80A6;" d="M247.425,256.01c-3.212,4.488-7.578,8.069-12.655,10.35c-4.047,1.814-8.559,2.82-13.317,2.746     c-10.399-0.122-19.571-5.248-25.237-13.071c3.164-4.39,7.431-7.947,12.41-10.228c4.022-1.839,8.535-2.893,13.292-2.844     C232.416,242.987,241.687,248.114,247.425,256.01z"/>
			<path style="fill:#678490;" d="M246.982,215.997c-4.845-2.614-10.968-4.062-19.421-4.555v-5.234h3.047     c3.043,0,5.51-2.467,5.51-5.51c0-3.043-2.467-5.51-5.51-5.51h-17.114c-3.043,0-5.51,2.467-5.51,5.51     c0,3.043,2.467,5.51,5.51,5.51h3.047v5.114c-8.39,0.306-14.515,1.6-19.395,4.087c-8.154,4.153-12.349,11.437-12.47,21.65     c-0.116,9.918,3.636,19.288,10.565,26.384c6.931,7.096,16.21,11.068,26.127,11.186c0.151,0.001,0.301,0.002,0.451,0.002     c9.751,0,18.945-3.742,25.934-10.568c7.095-6.93,11.068-16.209,11.186-26.127C259.058,227.722,255.036,220.341,246.982,215.997z      M240.052,256.179c-4.915,4.799-11.379,7.431-18.237,7.431c-0.106,0-0.212,0-0.317-0.002c-6.975-0.082-13.5-2.875-18.373-7.865     c-4.874-4.991-7.513-11.579-7.43-18.553c0.091-7.736,3.496-10.456,6.451-11.962c3.955-2.014,9.821-2.962,18.388-2.962     c0.475,0,0.96,0.003,1.451,0.009c21.745,0.256,26.044,6.132,25.932,15.53C247.835,244.78,245.042,251.305,240.052,256.179z"/>
		</g>
		<g>
			<g>
				<path style="fill:#93F6F8;" d="M199.423,174.803c0.095,17.115-7.636,32.468-19.843,42.616      c-9.47,7.896-21.6,12.654-34.888,12.728c-5.013,0.028-9.895-0.619-14.511-1.86c-23.404-6.231-40.691-27.481-40.833-52.871      c-0.116-20.888,11.426-39.119,28.543-48.54l0.027,0c7.766-4.302,16.674-6.75,26.161-6.803      c6.981-0.039,13.645,1.218,19.804,3.582C184.546,131.464,199.292,151.408,199.423,174.803z"/>
				<path style="fill:#93F6F8;" d="M355.344,173.935c0.089,16.01-6.676,30.468-17.536,40.582      c-9.733,9.111-22.802,14.682-37.194,14.762c-4.555,0.025-8.978-0.516-13.243-1.517c-24.048-5.796-41.957-27.367-42.101-53.214      c-0.122-21.859,12.548-40.85,30.962-49.794c7.177-3.517,15.252-5.503,23.769-5.55c7.385-0.041,14.455,1.375,20.884,4.008      C340.982,131.294,355.215,150.944,355.344,173.935z"/>
				<path style="fill:#DDFCFC;" d="M337.807,214.516c-9.733,9.111-22.802,14.682-37.194,14.762      c-4.555,0.025-8.978-0.516-13.243-1.517c16.195-24.995,10.423-40.057-10.285-46.437c-20.25-6.248-16.188-36.728-0.854-56.57      c7.177-3.517,15.252-5.503,23.769-5.55c7.385-0.041,14.455,1.375,20.884,4.008c-16.17,19.793-20.872,51.49-0.163,57.87      C337.542,186.271,344.503,197.202,337.807,214.516z"/>
				<path style="fill:#DDFCFC;" d="M179.58,217.419c-9.47,7.896-21.6,12.654-34.888,12.728c-5.013,0.028-9.895-0.619-14.511-1.86      c15.953-24.778,10.129-39.732-10.472-46.086c-19.845-6.116-16.343-35.461-1.818-55.325l0.027,0      c7.766-4.302,16.674-6.75,26.161-6.803c6.981-0.039,13.645,1.218,19.804,3.582c-16.493,19.768-21.409,51.87-0.538,58.303      C180.814,187.359,187.644,198.911,179.58,217.419z"/>
				<path style="fill:#605C5D;" d="M413.719,131.989l-3.674-3.632c-4.009-3.965-9.527-5.991-15.156-5.57      c-5.623,0.426-10.779,3.265-14.146,7.789l-21.655,29.097c-2.634-10.714-8.163-20.531-16.206-28.485      c-11.418-11.29-26.522-17.496-42.565-17.496c-0.115,0-0.231,0-0.346,0.001c-16.174,0.09-31.343,6.473-42.715,17.973      c-9.261,9.364-15.099,21.209-16.9,34.019c-14.393-6.016-27.915-2.787-36.081,0.522c-4.323-29.208-29.553-51.646-59.878-51.646      c-0.114,0-0.229,0-0.342,0.001c-16.174,0.09-31.342,6.473-42.715,17.973c-7.955,8.044-13.375,17.923-15.89,28.668      l-21.982-28.859c-3.417-4.487-8.603-7.267-14.23-7.631c-5.627-0.358-11.13,1.728-15.095,5.738l-3.632,3.673      c-2.14,2.164-2.12,5.653,0.044,7.793c2.165,2.14,5.653,2.12,7.793-0.044l3.631-3.673c1.746-1.765,4.069-2.658,6.549-2.489      c2.477,0.16,4.67,1.336,6.174,3.311l29.2,38.336c0.563,15.454,6.87,29.881,17.916,40.804      c11.418,11.29,26.521,17.496,42.565,17.496c0.115,0,0.231,0,0.346-0.001c16.174-0.09,31.342-6.473,42.715-17.973      c10.605-10.724,16.719-24.702,17.423-39.656c5.608-2.903,20.161-8.688,34.99-0.331c1.802,31.819,28.261,57.091,60.445,57.091      c0.115,0,0.229,0,0.342-0.001c16.173-0.09,31.343-6.473,42.715-17.973c10.924-11.047,17.071-25.547,17.46-41.008l28.766-38.651      c1.482-1.992,3.662-3.191,6.137-3.379c2.484-0.19,4.812,0.671,6.576,2.417l3.674,3.633c2.165,2.139,5.653,2.121,7.793-0.044      C415.903,137.618,415.883,134.129,413.719,131.989z M179.608,209.936c-9.302,9.406-21.711,14.628-34.94,14.701      c-0.096,0.001-0.189,0.001-0.284,0.001c-13.123-0.001-25.48-5.077-34.818-14.312c-9.406-9.302-14.628-21.711-14.701-34.94      c-0.153-27.309,21.942-49.652,49.251-49.803c0.096-0.001,0.189-0.001,0.284-0.001c13.123,0,25.48,5.077,34.819,14.312      c9.406,9.302,14.628,21.711,14.701,34.94C193.992,188.063,188.91,200.529,179.608,209.936z M349.833,173.966      c0.074,13.229-5.008,25.694-14.311,35.101c-9.302,9.406-21.711,14.628-34.94,14.701c-0.095,0.001-0.186,0.001-0.281,0.001      c-27.176-0.003-49.366-22.034-49.522-49.244c0-0.002,0-0.004,0-0.006c0,0,0-0.001,0-0.001      c-0.073-13.23,5.009-25.695,14.312-35.102c9.302-9.406,21.711-14.628,34.94-14.701c0.096-0.001,0.189-0.001,0.284-0.001      c13.123,0,25.479,5.077,34.818,14.312c9.407,9.302,14.628,21.711,14.701,34.94C349.833,173.965,349.833,173.965,349.833,173.966      z"/>
			</g>
			<g>
				
					<ellipse transform="matrix(1 -0.0082 0.0082 1 -1.4785 1.2917)" style="fill:#00D4D7;" cx="156.436" cy="180.552" rx="17.51" ry="20.198"/>
				
					<ellipse transform="matrix(1 -0.0082 0.0082 1 -1.4628 2.3752)" style="fill:#00D4D7;" cx="288.734" cy="179.465" rx="17.51" ry="20.198"/>
			</g>
		</g>
	</g>
	<g>
		
			<rect x="250.783" y="265.7" transform="matrix(0.9701 0.2425 -0.2425 0.9701 101.5648 -74.2543)" style="fill:#FFFFFF;" width="203.214" height="219.423"/>
		<path style="fill:#E3E3E3;" d="M424.361,512c-0.442,0-0.891-0.053-1.34-0.165l-197.147-49.283    c-1.418-0.354-2.637-1.257-3.388-2.51c-0.752-1.253-0.975-2.754-0.621-4.172l53.214-212.873c0.738-2.953,3.724-4.744,6.682-4.009    l197.148,49.283c1.418,0.354,2.637,1.257,3.388,2.511c0.752,1.253,0.975,2.754,0.621,4.172l-53.215,212.872    C429.077,510.329,426.83,512,424.361,512z M233.892,453.197l186.455,46.61l50.542-202.181l-186.456-46.61L233.892,453.197z"/>
		<path style="fill:#65E1E9;" d="M325.97,319.021c0.814,1.147,0.998,2.608,0.554,4.383c-0.913,3.65-3.514,4.938-7.805,3.866    l-25.671-6.417c-4.291-1.073-5.981-3.434-5.069-7.084c1.042-3.959,3.758-4.702,7.769-3.717c0,0,5.992,1.498,5.992,1.498    l6.677-26.708l-6.788,1.998c-6.922,2.089-9.123-9.216-2.608-10.949c0,0,13.556-3.922,13.556-3.922    c4.145-1.167,8.674-0.841,10.931,2.654c0.912,1.486,1.116,3.241,0.611,5.262l-8.767,35.068l6.066,1.516    C323.64,317.024,325.157,317.874,325.97,319.021z"/>
		<path style="fill:#65E1E9;" d="M310.717,380.04c1.772,2.066,0.426,7.174-2.044,8.175c-1.284,0.623-3.01,0.663-5.179,0.121    l-27.003-6.75c-6.455-1.513-5.502-9.39-0.407-12.207c0,0,19.771-12.43,19.771-12.43c9.277-5.349,10.952-15.592-1.138-15.101    c-1.667,0.117-4.309,0.68-6.298,1.138c-0.57,0.144-2.317,0.648-2.996,0.665c-3.567,0.39-5.359-3.707-4.421-6.844    c0.577-2.169,1.303-3.236,3.44-4.013c5.344-1.994,12.078-2.352,17.608-0.943c14.042,3.268,19.745,15.532,10.718,27.087    c-3.429,4.62-16.176,11.465-21.445,14.88l14.87,3.717C308.364,378.076,309.871,378.913,310.717,380.04z"/>
		<path style="fill:#65E1E9;" d="M297.543,427.547c2.21,5.007,0.433,12.471-3.94,15.915c-5.211,4.203-12.241,4.302-19.124,2.608    c-5.937-1.477-11.946-4.644-15.684-9.266c-1.336-1.688-1.641-3.107-1.146-5.16c0.6-2.665,3.014-5.077,5.733-4.384    c2.109,0.507,3.275,2.273,5.16,3.57c2.73,2.269,4.509,3.722,7.898,4.568c4.829,1.103,7.906,0.987,9.21-3.829    c1.828-6.481-6.374-7.184-11.152-8.527c-6.316-1.424-3.615-12.22,2.626-10.505l3.254,0.814c4.409,0.967,7.74,1.301,9.008-3.015    c0.957-3.73-0.988-6.405-4.698-7.305c-3.484-0.914-6.694,0.148-10.265,0.814c-1.914,0.406-2.7,0.788-4.42,0.388    c-3.74-0.896-4.006-6.456-1.831-9.025c2.646-2.518,6.843-3.024,10.709-3.376c8.973-0.454,20.062,3.037,23.49,11.689    c2.91,7.586-2.008,17.096-10.524,17.727C294.547,422.817,296.445,424.915,297.543,427.547z"/>
		<g>
			<path style="fill:#605C5D;" d="M397.503,313.656c-0.442,0-0.891-0.053-1.34-0.165l-44.67-11.166     c-2.952-0.738-4.747-3.729-4.009-6.682c0.738-2.953,3.723-4.751,6.682-4.009l44.67,11.166c2.952,0.738,4.747,3.729,4.009,6.682     C402.219,311.985,399.973,313.656,397.503,313.656z"/>
			<path style="fill:#FE518E;" d="M375.598,331.67c-0.442,0-0.891-0.053-1.34-0.165l-28.292-7.072     c-2.952-0.738-4.747-3.729-4.009-6.682c0.739-2.952,3.726-4.752,6.682-4.009l28.292,7.072c2.952,0.738,4.747,3.73,4.009,6.682     C380.314,329.999,378.068,331.67,375.598,331.67z"/>
			<path style="fill:#6DB850;" d="M425.045,351.684c-0.241,0-0.481-0.016-0.723-0.048c-1.833-0.242-3.422-1.387-4.232-3.051     l-11.338-23.29c-1.332-2.736-0.194-6.034,2.543-7.366c2.738-1.331,6.035-0.194,7.366,2.543l7.692,15.8l24.252-27.89     c1.998-2.296,5.478-2.538,7.774-0.542c2.296,1.997,2.539,5.477,0.542,7.774l-29.718,34.176     C428.148,351.001,426.627,351.684,425.045,351.684z"/>
		</g>
		<g>
			<path style="fill:#605C5D;" d="M382.143,375.103c-0.442,0-0.891-0.053-1.34-0.165l-44.67-11.166     c-2.952-0.738-4.747-3.73-4.009-6.682c0.738-2.953,3.723-4.751,6.682-4.009l44.67,11.166c2.952,0.738,4.747,3.729,4.009,6.682     C386.859,373.432,384.612,375.103,382.143,375.103z"/>
			<path style="fill:#FE518E;" d="M360.238,393.117c-0.442,0-0.891-0.053-1.34-0.165l-28.292-7.073     c-2.953-0.739-4.747-3.73-4.009-6.682c0.738-2.953,3.723-4.754,6.682-4.009l28.292,7.073c2.953,0.739,4.747,3.729,4.009,6.682     C364.954,391.446,362.707,393.117,360.238,393.117z"/>
			<path style="fill:#6DB850;" d="M409.683,413.13c-0.241,0-0.481-0.016-0.723-0.048c-1.833-0.242-3.423-1.387-4.233-3.051     l-11.337-23.29c-1.332-2.737-0.194-6.034,2.543-7.366c2.736-1.331,6.035-0.194,7.366,2.543l7.691,15.801l24.253-27.89     c1.998-2.296,5.478-2.537,7.774-0.542c2.296,1.997,2.539,5.478,0.542,7.774l-29.719,34.175     C412.787,412.447,411.265,413.13,409.683,413.13z"/>
		</g>
		<g>
			<path style="fill:#605C5D;" d="M366.926,435.974c-0.442,0-0.891-0.053-1.34-0.165l-44.67-11.166     c-2.952-0.738-4.747-3.73-4.009-6.682c0.738-2.953,3.724-4.751,6.682-4.009l44.67,11.166c2.952,0.738,4.747,3.73,4.009,6.682     C371.642,434.303,369.396,435.974,366.926,435.974z"/>
			<path style="fill:#FE518E;" d="M345.021,453.988c-0.442,0-0.891-0.053-1.34-0.165l-28.292-7.073     c-2.953-0.739-4.747-3.729-4.009-6.682c0.738-2.953,3.724-4.753,6.682-4.009l28.292,7.073c2.953,0.739,4.747,3.73,4.009,6.682     C349.737,452.317,347.491,453.988,345.021,453.988z"/>
			<path style="fill:#6DB850;" d="M394.467,474.001c-0.241,0-0.481-0.016-0.723-0.048c-1.833-0.242-3.422-1.387-4.232-3.05     l-11.339-23.29c-1.332-2.736-0.194-6.034,2.543-7.366c2.737-1.331,6.035-0.194,7.366,2.543l7.692,15.801l24.252-27.89     c1.998-2.296,5.478-2.537,7.774-0.542c2.296,1.997,2.539,5.478,0.542,7.774l-29.718,34.175     C397.571,473.318,396.049,474.001,394.467,474.001z"/>
		</g>
	</g>
	<g>
		<path style="fill:#B1B9C6;" d="M350.208,239.146c-6.682,17.979,2.476,37.971,20.456,44.653    c17.979,6.682,37.971-2.476,44.653-20.456c6.682-17.979-5.583-29.612-23.562-36.294    C373.776,220.367,356.89,221.167,350.208,239.146z"/>
		<path style="fill:#678490;" d="M382.784,291.506c-4.732,0-9.472-0.845-14.039-2.543c-10.075-3.744-18.089-11.188-22.566-20.96    c-4.476-9.771-4.879-20.702-1.135-30.777l0,0c3.769-10.141,10.862-16.628,20.514-18.757c7.877-1.741,17.339-0.592,28.117,3.415    c10.777,4.005,18.692,9.312,23.523,15.775c5.918,7.917,7.054,17.462,3.284,27.603c-3.744,10.075-11.188,18.089-20.96,22.565    C394.18,290.275,388.49,291.505,382.784,291.506z M373.068,228.711c-1.844,0-3.561,0.172-5.135,0.519    c-5.983,1.32-10.09,5.191-12.56,11.836l0,0c-2.719,7.315-2.426,15.252,0.825,22.348c3.25,7.095,9.07,12.501,16.386,15.22    c7.317,2.719,15.254,2.427,22.348-0.825c7.096-3.25,12.501-9.07,15.22-16.385c2.469-6.644,1.886-12.258-1.782-17.165    c-3.492-4.671-9.901-8.836-18.535-12.045C383.588,229.893,377.896,228.711,373.068,228.711z"/>
	</g>
	<g>
		<path style="fill:#89D770;" d="M211.968,320.884l-3.331-4.207c-3.405-4.301-9.515-5.322-14.134-2.362l-4.518,2.896    c-7.435,4.765-12.507,12.452-13.963,21.162l-17.553,105.027c-1.951,11.672,5.93,22.716,17.602,24.667h0    c11.672,1.951,22.716-5.93,24.667-17.602l17.553-105.027C219.746,336.726,217.45,327.807,211.968,320.884z"/>
		<path style="fill:#6DB850;" d="M179.618,473.871c-1.47,0-2.958-0.12-4.455-0.371c-14.65-2.449-24.578-16.359-22.129-31.01    l17.552-105.026c1.709-10.226,7.696-19.299,16.425-24.894l4.518-2.896c7.032-4.505,16.245-2.965,21.428,3.582l3.33,4.207l0,0    c6.437,8.128,9.148,18.655,7.439,28.882l-17.553,105.026C203.974,464.524,192.535,473.871,179.618,473.871z M200.267,318.132    c-0.958,0-1.926,0.267-2.792,0.822l-4.517,2.896c-6.113,3.917-10.305,10.271-11.502,17.431l-17.552,105.026    c-1.447,8.658,4.418,16.877,13.075,18.324c8.663,1.451,16.877-4.419,18.324-13.075l17.553-105.027    c1.197-7.161-0.702-14.532-5.208-20.224l-3.331-4.207C203.299,318.812,201.795,318.132,200.267,318.132z"/>
	</g>
	<path style="fill:#B1B9C6;" d="M118.409,387.602c31.466-23.593,104.061-24.771,104.061,9.859s-105.214,55.476-132.829,27.861   c-24.697-24.673-5.224-70.707,41.006-109.383L118.409,387.602z"/>
	<path style="fill:#678490;" d="M210.575,371.68c-24.705-12.354-71.104-6.759-95.472,11.513c-2.434,1.826-2.928,5.279-1.103,7.715   c1.825,2.434,5.28,2.928,7.715,1.103c21.176-15.877,62.752-21.067,83.931-10.474c7.613,3.807,11.313,9.016,11.313,15.924   c0,8.492-9.675,17.369-26.543,24.357c-15.919,6.595-36.505,10.612-55.069,10.75c-19.372,0.115-34.584-3.918-41.812-11.145   c-6.49-6.484-9.557-14.846-9.115-24.852c0.975-22.094,18.768-49.872,47.723-74.672c0.249,0.052,0.496,0.114,0.745,0.165   c9.728,1.966,19.591,3.633,29.317,4.953c0.251,0.034,0.501,0.051,0.747,0.051c2.714,0,5.079-2.006,5.453-4.771   c0.409-3.015-1.704-5.792-4.72-6.201c-9.491-1.288-19.118-2.914-28.613-4.833c-35.605-7.212-64.111-34.795-72.622-70.27   c-4.505-18.78-6.789-37.862-6.789-56.717c0-20.885,4.774-60.745,36.751-93.047c2.141-2.162,2.123-5.651-0.04-7.793   c-2.163-2.14-5.651-2.123-7.793,0.04c-34.75,35.103-39.938,78.221-39.938,100.799c0,19.719,2.386,39.667,7.092,59.288   c4.689,19.544,14.754,37.221,29.107,51.122c11.035,10.687,24.205,18.736,38.622,23.708c-28.336,25.801-44.996,53.743-46.053,77.691   c-0.576,13.039,3.689,24.497,12.334,33.132c10.022,10.022,28.49,14.387,48.891,14.387c20.217-0.001,42.333-4.288,59.997-11.604   c21.504-8.907,33.347-21.173,33.347-34.539C227.98,386.289,221.962,377.374,210.575,371.68z"/>
</g>
<g>
</g>
<g>
</g>
<g>
</g>
<g>
</g>
<g>
</g>
<g>
</g>
<g>
</g>
<g>
</g>
<g>
</g>
<g>
</g>
<g>
</g>
<g>
</g>
<g>
</g>
<g>
</g>
<g>
</g>
</svg>
