<?xml version="1.0" encoding="iso-8859-1"?>
<!-- Generator: Adobe Illustrator 28.0.0, SVG Export Plug-In . SVG Version: 6.00 Build 0)  -->
<svg xmlns="http://www.w3.org/2000/svg" xmlns:xlink="http://www.w3.org/1999/xlink" version="1.1" id="Capa_1" x="0px" y="0px" viewBox="0 0 512 512" style="enable-background:new 0 0 512 512;" xml:space="preserve">
<g>
	<g>
		<path style="fill:#B0B8C5;" d="M397.654,364.145c27.051-14.585,45.501-41.659,48.875-72.929    c2.019-18.726,1.849-37.171-0.492-55.359c-2.706-21.029-10.668-44.828-26.735-65.428c8.143-24.704,23.178-79.816,1.678-96.414    c-21.655-16.717-78.283,26.047-103.025,46.43c-13.609-0.501-30.912,0.801-50.581,3.422c-19.696,2.445-36.766,5.567-49.805,9.497    c-29.107-13.467-94.71-40.477-111.417-18.835c-16.592,21.493,11.878,70.973,26.041,92.83    c-10.335,24.003-12.013,49.049-9.306,70.083c2.34,18.188,6.845,36.075,13.54,53.68c8.73,22.952,25.706,41.098,46.939,51.413    c-36.338,37.518-53.142,86.885-23.642,93.645c35.279,8.085,66.019-28.664,66.019-28.664H376.1c0,0,30.74,36.749,66.019,28.664    C476.804,468.232,447.483,401.38,397.654,364.145z"/>
		<g>
			<path style="fill:#90A1B4;" d="M288.582,134.335c3.874,30.106-1.747,55.623-12.512,57.009     c-10.789,1.388-22.687-21.874-26.561-51.98c-0.531-4.126-0.886-8.158-1.059-12.049c12.628-2.211,25.33-3.845,38.109-4.881     C287.377,126.241,288.055,130.231,288.582,134.335z"/>
			<g>
				<path style="fill:#90A1B4;" d="M245.355,129.844c3.871,30.083-1.724,55.62-12.513,57.009      c-10.374,1.335-21.825-20.274-26.103-48.782c6.483-2.615,13.261-4.753,20.27-6.381c6.008-1.382,12.032-2.65,18.076-3.756      C245.191,128.576,245.271,129.199,245.355,129.844z"/>
				<path style="fill:#90A1B4;" d="M329.599,122.003c3.14,28.771-2.449,52.714-12.869,54.055      c-10.789,1.388-22.667-21.9-26.538-51.983c-0.083-0.646-0.163-1.268-0.223-1.917c7.032-0.53,14.115-0.856,21.195-1.017      C317.401,120.994,323.557,121.304,329.599,122.003z"/>
			</g>
		</g>
		<path style="fill:#67818D;" d="M424.528,172.147l-10.468-3.447c15.298-46.463,16.623-80.23,3.543-90.328    c-12.731-9.83-49.575,7.922-96.142,46.329l-7.013-8.503c13.402-11.054,33.563-26.568,53.487-37.7    c26.493-14.8,44.942-17.699,56.403-8.851C447.884,87.824,434.565,141.668,424.528,172.147z"/>
		<path style="fill:#FFFFFF;" d="M134.572,157.952c0,0-2.204,7.455-1.694,15.427c0.456,7.37,5.577,12.382,11.64,13.968    c10.332-15.32,23.822-28.491,39.691-38.478c-0.672-3.944-2.833-7.626-6.437-10.139c-14.471-10.112-34.018-20.51-46.032-13.714    C110.816,136.872,134.572,157.952,134.572,157.952z"/>
		<path style="fill:#67818D;" d="M407.328,364.765c24.64-16.147,41.432-42.84,44.681-72.959c2.052-19.033,1.883-38.094-0.506-56.653    c-2.736-21.266-12.849-61.249-49.841-90.106c-2.401-1.873-5.863-1.444-7.735,0.955c-1.872,2.4-1.444,5.863,0.956,7.734    c33.882,26.431,43.168,63.236,45.689,82.823c2.278,17.701,2.439,35.891,0.479,54.064c-3.036,28.144-19.361,52.915-43.097,66.993    c-1.013-0.328-2.475,0.659-3.771,2.111c-4.049,2.14-8.286,3.987-12.698,5.488c-26.406,8.97-53.535,15.286-80.636,18.773    c-27.104,3.487-54.95,4.244-82.758,2.255c-10.554-0.76-32.449-9.627-34.15-9.668c-19.1-9.891-34.447-26.601-42.364-47.413    c-6.497-17.089-10.947-34.727-13.224-52.425c-2.52-19.587-2.855-57.545,23.231-91.691c1.848-2.418,1.386-5.877-1.033-7.725    c-2.418-1.847-5.877-1.385-7.724,1.034c-4.43,5.798-8.16,11.692-11.295,17.592c-22.564-37.022-30.437-65.866-21.027-78.057    c9.064-11.742,43.99-5.938,92.424,14.975c-7.653,3.361-14.923,7.138-21.621,11.251c-2.594,1.592-3.405,4.986-1.812,7.58    c1.04,1.694,2.848,2.628,4.701,2.628c0.983,0,1.979-0.263,2.879-0.816c6.688-4.107,13.996-7.869,21.717-11.181    c12.298-5.266,32.237-9.638,59.31-12.999c26.993-3.596,47.389-4.415,60.617-2.435c8.314,1.251,16.337,3.04,23.843,5.319    c2.909,0.884,5.99-0.76,6.874-3.672c0.884-2.912-0.76-5.99-3.672-6.874c-8.017-2.434-16.565-4.342-25.409-5.673    c-14.254-2.133-35.691-1.323-63.659,2.404c-19.878,2.468-36.166,5.521-48.697,9.108c-15.737-7.207-38.216-16.571-59.421-22.066    c-29.371-7.611-47.951-5.742-56.797,5.716c-17.657,22.873,6.793,69.378,24.199,96.726c-11.28,27.891-10.581,54.539-8.558,70.263    c2.387,18.555,7.049,37.037,13.854,54.935c8.282,21.773,23.802,39.55,43.227,50.873c-25.587,28.501-39.785,61.706-34.111,80.98    c2.575,8.748,8.835,14.493,18.102,16.618c3.959,0.907,7.849,1.314,11.649,1.314c32.796-0.001,58.623-30.374,59.828-31.814    c1.953-2.334,1.643-5.809-0.692-7.762c-2.334-1.952-5.809-1.643-7.762,0.692c-0.286,0.341-28.941,34.078-60.561,26.827    c-5.374-1.231-8.548-4.087-9.99-8.986c-4.646-15.78,10.046-47.104,33.738-72.683c10.187,4.468,21.181,7.276,32.598,8.099    c10.346,0.741,20.697,1.111,31.016,1.111c18.148,0,36.198-1.145,53.939-3.428c27.826-3.581,55.675-10.064,82.776-19.269    c4.148-1.411,8.157-3.099,12.023-5.016c15.929,12.434,30.21,28.372,40.625,45.465c10.572,17.352,15.651,33.857,13.583,44.151    c-1.175,5.849-4.473,9.204-10.377,10.557c-13.014,2.982-27.039-0.497-41.697-10.341c-11.374-7.64-18.794-16.403-18.864-16.486    c-1.953-2.334-5.428-2.643-7.763-0.691c-2.334,1.953-2.644,5.429-0.691,7.763c0.335,0.399,8.328,9.88,20.921,18.392    c13.105,8.86,26.418,13.391,39.097,13.39c3.886,0,7.716-0.427,11.459-1.284c10.057-2.305,16.706-9.099,18.72-19.13    C467.153,437.112,442.203,393.58,407.328,364.765z"/>
		<g>
			<g>
				<path style="fill:#90A1B4;" d="M377.165,305.592c-2.731,0-5.101-2.028-5.459-4.808c-0.389-3.019,1.744-5.781,4.762-6.169      l28.639-3.686c3.025-0.389,5.781,1.744,6.169,4.762c0.389,3.019-1.744,5.781-4.762,6.169l-28.639,3.686      C377.637,305.576,377.399,305.592,377.165,305.592z"/>
				<path style="fill:#90A1B4;" d="M404.07,329.48c-0.41,0-0.827-0.046-1.244-0.142l-24.548-5.663      c-2.966-0.684-4.815-3.643-4.131-6.609c0.685-2.965,3.642-4.812,6.609-4.131l24.548,5.663c2.966,0.684,4.815,3.643,4.131,6.609      C408.847,327.756,406.579,329.48,404.07,329.48z"/>
			</g>
			<g>
				<path style="fill:#90A1B4;" d="M177.123,331.335c-2.731,0-5.101-2.028-5.459-4.808c-0.389-3.019,1.744-5.781,4.762-6.169      l28.64-3.685c3.023-0.388,5.78,1.745,6.169,4.762c0.389,3.019-1.744,5.781-4.762,6.169l-28.64,3.685      C177.595,331.319,177.357,331.335,177.123,331.335z"/>
				<path style="fill:#90A1B4;" d="M185.804,357.569c-1.984,0-3.901-1.074-4.887-2.954c-1.412-2.696-0.372-6.026,2.324-7.439      l22.316-11.695c2.696-1.41,6.026-0.372,7.439,2.324c1.412,2.696,0.372,6.026-2.324,7.439l-22.316,11.695      C187.541,357.366,186.666,357.569,185.804,357.569z"/>
			</g>
		</g>
		<g>
			<path style="fill:#FFFFFF;" d="M326.887,260.612c-2.731,0-5.101-2.027-5.459-4.808c-0.389-3.019,1.744-5.781,4.762-6.169     l15.025-1.933c3.021-0.394,5.78,1.744,6.169,4.762c0.388,3.019-1.744,5.78-4.762,6.169l-15.024,1.933     C327.358,260.598,327.12,260.612,326.887,260.612z"/>
			<path style="fill:#FFFFFF;" d="M227.991,273.34c-2.731,0-5.101-2.028-5.459-4.808c-0.389-3.019,1.744-5.781,4.762-6.169     l15.023-1.933c3.025-0.387,5.781,1.745,6.169,4.762c0.388,3.019-1.744,5.781-4.762,6.169l-15.023,1.933     C228.463,273.324,228.225,273.34,227.991,273.34z"/>
		</g>
		<path style="fill:#67818D;" d="M310.986,297.579c-0.389-3.018-3.148-5.149-6.169-4.762c-2.662,0.342-5.304-0.372-7.433-2.014    c-2.126-1.641-3.485-4.009-3.828-6.67c0-0.001,0-0.001,0-0.002l-0.38-2.954l2.577-0.332c3.019-0.389,5.151-3.151,4.762-6.169    c-0.389-3.019-3.146-5.146-6.169-4.762l-16.086,2.07c-3.019,0.389-5.151,3.151-4.762,6.169c0.358,2.78,2.728,4.808,5.459,4.808    c0.234,0,0.472-0.016,0.71-0.046l2.578-0.332l0.38,2.954c0,0,0,0,0,0.001c0.707,5.498-3.19,10.544-8.686,11.251    c-3.02,0.389-5.152,3.15-4.763,6.168c0.357,2.781,2.728,4.809,5.459,4.809c0.234,0,0.472-0.016,0.709-0.046    c5.581-0.718,10.55-3.568,13.99-8.024c0.197-0.254,0.387-0.512,0.569-0.772c0.244,0.206,0.493,0.407,0.748,0.604    c4.458,3.44,9.989,4.935,15.573,4.219C309.243,303.36,311.375,300.598,310.986,297.579z"/>
		<path style="fill:#605C5D;" d="M338.434,283.868c-2.731,0-5.101-2.028-5.459-4.808c-0.388-3.019,1.744-5.781,4.762-6.169    l36.25-4.665c3.021-0.387,5.78,1.745,6.169,4.762c0.388,3.019-1.744,5.781-4.762,6.169l-36.249,4.665    C338.906,283.852,338.668,283.868,338.434,283.868z"/>
		<path style="fill:#605C5D;" d="M201.481,301.492c-2.731,0-5.101-2.028-5.459-4.808c-0.388-3.019,1.744-5.781,4.762-6.169    l36.251-4.665c3.022-0.384,5.78,1.744,6.169,4.762c0.389,3.019-1.744,5.781-4.762,6.169l-36.251,4.665    C201.953,301.477,201.715,301.492,201.481,301.492z"/>
	</g>
	<g>
		<g>
			<path style="fill:#67818D;" d="M170.378,444.699c-0.84,0-1.694-0.193-2.495-0.601c-2.712-1.381-3.792-4.699-2.411-7.411     c0.435-0.855,10.951-21.012,35.759-26.404c2.978-0.647,5.909,1.241,6.555,4.214c0.647,2.974-1.24,5.909-4.214,6.555     c-19.755,4.294-28.195,20.473-28.278,20.635C174.321,443.598,172.385,444.699,170.378,444.699z"/>
			<path style="fill:#67818D;" d="M431.465,444.699c-2.002,0-3.932-1.094-4.907-2.994c-0.369-0.709-8.751-16.406-28.287-20.653     c-2.974-0.646-4.861-3.581-4.215-6.555c0.648-2.975,3.58-4.864,6.556-4.214c24.81,5.392,35.324,25.549,35.759,26.404     c1.381,2.712,0.301,6.03-2.411,7.411C433.159,444.506,432.305,444.699,431.465,444.699z"/>
		</g>
	</g>
	<path style="fill:#777677;" d="M394.957,480.906H206.885c-7.736,0-14.371-5.517-15.783-13.122l-16.751-90.226   c-2.634-14.188,8.255-27.285,22.685-27.285h207.768c14.43,0,25.319,13.097,22.685,27.285l-16.751,90.226   C409.328,475.389,402.693,480.906,394.957,480.906z"/>
	<path style="fill:#605C5D;" d="M394.958,485.916H206.885c-10.147,0-18.856-7.241-20.708-17.217l-16.75-90.226   c-1.528-8.231,0.665-16.643,6.017-23.079c5.352-6.437,13.223-10.129,21.594-10.129h207.768c8.371,0,16.242,3.692,21.594,10.128   c5.351,6.436,7.545,14.849,6.018,23.079l-16.751,90.227C413.813,478.675,405.105,485.916,394.958,485.916z M197.037,355.284   c-5.385,0-10.447,2.375-13.889,6.515c-3.442,4.141-4.852,9.551-3.87,14.845l16.751,90.226c0.971,5.231,5.537,9.027,10.857,9.027   h188.072c5.32,0,9.886-3.797,10.856-9.027l16.752-90.226c0.982-5.294-0.429-10.705-3.871-14.845   c-3.442-4.14-8.505-6.515-13.889-6.515H197.037z"/>
	<path style="fill:#FFFF9C;" d="M59.505,139.41l63.543,0c29.82,0,53.995,24.174,53.995,53.995l0,27.857   c0,25.1-17.128,46.196-40.333,52.247c7.957,11.766,16.084,27.897,4.557,32.276c-14.636,5.559-46.375-12.394-62.25-30.529l-19.512,0   c-29.82,0-53.995-24.174-53.994-53.995v-27.857C5.511,163.584,29.685,139.41,59.505,139.41z"/>
	<path style="fill:#FFCB6B;" d="M135.038,312.306c-18.359,0.001-44.486-16.612-58.463-31.539h-17.07   C26.694,280.767,0,254.073,0,221.261v-27.857c0-32.811,26.694-59.505,59.505-59.505h63.544c32.811,0,59.505,26.694,59.505,59.505   v27.857c0,24.572-15.055,46.344-37.399,55.263c6.464,10.93,8.637,19.369,6.639,25.678c-1.29,4.074-4.252,7.094-8.569,8.734   C140.753,311.875,137.995,312.306,135.038,312.306z M59.505,144.92c-26.734,0-48.483,21.75-48.483,48.484v27.857   c0,26.734,21.75,48.484,48.483,48.484h19.513c1.589,0,3.1,0.686,4.147,1.881c15.761,18.006,45.144,33.188,56.146,29.007   c1.615-0.613,1.849-1.357,1.977-1.756c0.913-2.887-1.009-10.254-9.141-22.281c-1.002-1.481-1.223-3.357-0.592-5.031   c0.631-1.673,2.035-2.937,3.766-3.389c21.321-5.56,36.212-24.852,36.212-46.915v-27.857c0-26.734-21.749-48.484-48.483-48.484   H59.505z"/>
	<g>
		<path style="fill:#FF7AA7;" d="M127.435,236.303c0.124,5.986-7.82,9.838-12.676,6.583c-1.245-0.786-2.227-1.965-2.947-3.537    l-4.422-9.923H75.557l-4.52,9.923c-4.152,9.615-19.877,2.93-15.033-6.681c0,0,25.939-53.254,25.939-53.254    c3.311-7.324,15.318-7.292,18.669,0c0,0,25.939,53.254,25.939,53.254C127.14,233.913,127.435,235.125,127.435,236.303z     M101.299,215.867l-9.826-21.911l-9.826,21.911H101.299z"/>
	</g>
	<ellipse style="fill:#FFFFFF;" cx="300.921" cy="424.941" rx="20.782" ry="15.407"/>
	<path style="fill:#605C5D;" d="M300.922,445.358c-14.222,0-25.792-9.159-25.792-20.417c0-11.258,11.57-20.417,25.792-20.417   c14.221,0,25.792,9.159,25.792,20.417C326.713,436.2,315.143,445.358,300.922,445.358z M300.922,414.544   c-8.55,0-15.773,4.761-15.773,10.397c0,5.636,7.223,10.397,15.773,10.397c8.549,0,15.772-4.761,15.772-10.397   C316.694,419.305,309.471,414.544,300.922,414.544z"/>
	<g>
		<path style="fill:#65E0E8;" d="M506.489,86.697v63.255c0,19.549-10.183,36.719-25.544,46.481    c-8.548,5.475-18.706,8.622-29.583,8.622h-20.069c0,23.29-9.117,42.169-20.341,42.169c-11.223,0-20.316-18.88-20.316-42.169    h-20.094c-18.458,0-34.81-9.069-44.77-23.017c-6.517-9.044-10.332-20.119-10.332-32.086V86.697    c0-30.425,24.677-55.103,55.102-55.103h80.821c13.677,0,26.214,4.98,35.826,13.255C499.007,54.934,506.489,69.949,506.489,86.697z    "/>
		<path style="fill:#00D3D6;" d="M410.951,252.735c-13.711,0-24.282-17.774-25.671-42.169h-14.739    c-19.519,0-37.932-9.468-49.254-25.326c-7.426-10.305-11.358-22.514-11.358-35.288V86.697c0-33.422,27.191-60.613,60.613-60.613    h80.821c14.492,0,28.492,5.181,39.422,14.589C504.26,52.173,512,68.953,512,86.697v63.255c0,20.836-10.505,39.951-28.1,51.132    c-9.677,6.199-20.934,9.482-32.538,9.482h-14.714C435.257,234.961,424.675,252.735,410.951,252.735z M370.541,37.106    c-27.344,0-49.591,22.247-49.591,49.591v63.255c0,10.447,3.213,20.428,9.292,28.864c9.273,12.987,24.334,20.729,40.299,20.729    h20.094c3.043,0,5.511,2.467,5.511,5.511c0,10.301,1.97,20.298,5.403,27.427c2.785,5.781,6.299,9.232,9.402,9.232    c3.106,0,6.626-3.452,9.417-9.235c3.44-7.131,5.414-17.126,5.414-27.423c0-3.044,2.468-5.511,5.511-5.511h20.069    c9.492,0,18.694-2.68,26.61-7.752c14.413-9.159,23.007-24.796,23.007-41.84V86.697c0-14.513-6.33-28.238-17.367-37.655    c-8.948-7.703-20.395-11.936-32.25-11.936H370.541z"/>
		<g>
			<path style="fill:#605C5D;" d="M404.807,116.929c-4.473-4.233-10.331-6.46-16.483-6.301l-12.568,0.346l-0.331-12.011     c5.302-0.451,11.186-1.242,17.628-2.557c2.711-0.553,4.46-3.2,3.907-5.91c-0.554-2.71-3.198-4.46-5.911-3.907     c-5.792,1.182-11.113,1.916-15.901,2.34L374.9,79.9c-0.076-2.766-2.385-4.943-5.146-4.87c-2.766,0.076-4.946,2.38-4.87,5.146     l0.255,9.242c-11.15,0.088-17.585-1.465-17.762-1.51c-2.671-0.688-5.402,0.92-6.096,3.594c-0.695,2.678,0.913,5.412,3.591,6.107     c0.463,0.12,7.37,1.854,19.284,1.854c0.406,0,0.841-0.011,1.259-0.015l0.325,11.8l-12.704,0.35     c-6.068,0.167-11.709,2.687-15.883,7.097c-4.173,4.41-6.38,10.18-6.212,16.253l0.019,0.652     c0.167,6.068,2.687,11.709,7.097,15.882c4.253,4.025,9.774,6.221,15.607,6.221c0.214,0,0.429-0.003,0.643-0.009     c12.527-0.344,22.438-10.818,22.094-23.346l-0.368-13.36l12.568-0.346c3.495-0.103,6.792,1.17,9.321,3.563     c2.529,2.394,3.975,5.629,4.071,9.11c0.096,3.481-1.169,6.791-3.564,9.32c-2.393,2.529-5.628,3.975-9.11,4.071l-4.369,0.12     c-2.766,0.076-4.946,2.38-4.87,5.146c0.075,2.766,2.402,4.952,5.146,4.87l4.369-0.12c6.157-0.17,11.878-2.727,16.112-7.2     c4.233-4.473,6.472-10.327,6.301-16.483C411.838,126.884,409.281,121.162,404.807,116.929z M354.03,147.68     c-3.396,0.107-6.62-1.14-9.086-3.474c-2.466-2.333-3.876-5.487-3.969-8.885l-0.019-0.652c-0.093-3.393,1.14-6.62,3.474-9.086     c2.334-2.465,5.488-3.875,8.882-3.968l12.704-0.35l0.368,13.36C366.577,141.631,361.035,147.487,354.03,147.68z"/>
			<path style="fill:#605C5D;" d="M455.272,154.906c-5.398,0-10.507-2.031-14.443-5.757c-4.081-3.863-6.414-9.083-6.568-14.7     l-1.547-56.141c-0.076-2.766,2.104-5.069,4.87-5.146c2.752-0.096,5.069,2.104,5.146,4.87l1.547,56.141     c0.081,2.942,1.302,5.676,3.44,7.698c2.136,2.023,4.932,3.094,7.875,3.011c2.941-0.081,5.675-1.303,7.699-3.44     c2.022-2.138,3.092-4.934,3.011-7.875l-0.35-12.718c-0.076-2.766,2.104-5.069,4.87-5.146c2.739-0.077,5.07,2.104,5.146,4.87     l0.35,12.718c0.155,5.617-1.887,10.957-5.75,15.039c-3.863,4.081-9.083,6.413-14.7,6.568     C455.668,154.903,455.47,154.906,455.272,154.906z"/>
			<path style="fill:#605C5D;" d="M488.898,121.727c-2.228,0-4.261-1.498-4.845-3.755c-4.862-18.771-15.532-23.836-15.984-24.043     c-2.543-1.089-3.696-4.021-2.608-6.565c1.089-2.544,4.065-3.71,6.604-2.623c0.631,0.27,15.515,6.882,21.687,30.719     c0.694,2.679-0.915,5.412-3.593,6.106C489.737,121.675,489.314,121.727,488.898,121.727z"/>
			<path style="fill:#605C5D;" d="M419.96,112.301c-2.228,0-4.261-1.498-4.846-3.755c-2.608-10.071-8.235-12.882-8.291-12.906     c-2.544-1.089-3.724-4.033-2.635-6.577c1.088-2.545,4.035-3.724,6.576-2.635c1.033,0.442,10.203,4.747,14.05,19.605     c0.693,2.679-0.916,5.412-3.595,6.106C420.798,112.249,420.376,112.301,419.96,112.301z"/>
		</g>
	</g>
</g>
<g>
</g>
<g>
</g>
<g>
</g>
<g>
</g>
<g>
</g>
<g>
</g>
<g>
</g>
<g>
</g>
<g>
</g>
<g>
</g>
<g>
</g>
<g>
</g>
<g>
</g>
<g>
</g>
<g>
</g>
</svg>
