<svg width="128" height="128" viewBox="0 0 128 128" fill="none" xmlns="http://www.w3.org/2000/svg">
<rect width="128" height="128" rx="32" fill="#F97315"/>
<path d="M66.74 94.77C62.2667 94.77 57.9767 94.0733 53.87 92.68C49.8367 91.2867 46.2433 89.27 43.09 86.63C40.01 83.9167 37.5533 80.6533 35.72 76.84C33.96 73.0267 33.08 68.6633 33.08 63.75C33.08 59.0567 33.9233 54.7667 35.61 50.88C37.37 46.9933 39.7167 43.62 42.65 40.76C45.6567 37.9 49.1033 35.7 52.99 34.16C56.95 32.62 61.13 31.85 65.53 31.85C69.1233 31.85 72.5333 32.3267 75.76 33.28C79.06 34.2333 81.9933 35.6267 84.56 37.46C87.2 39.2933 89.2533 41.4567 90.72 43.95C92.26 46.4433 93.03 49.23 93.03 52.31C93.03 56.1967 91.93 59.4233 89.73 61.99C87.53 64.5567 84.6333 66.5733 81.04 68.04C77.52 69.5067 73.6333 70.57 69.38 71.23C65.2 71.8167 61.0567 72.0733 56.95 72C56.4367 72 55.8133 72 55.08 72C54.42 71.9267 53.7967 71.89 53.21 71.89C52.6233 71.8167 52.1833 71.78 51.89 71.78C52.33 73.4667 53.2467 75.0067 54.64 76.4C56.1067 77.72 57.94 78.7833 60.14 79.59C62.34 80.3967 64.6133 80.8 66.96 80.8C69.3067 80.8 71.5433 80.3967 73.67 79.59C75.87 78.7833 77.85 77.7567 79.61 76.51C81.37 75.2633 82.8733 73.87 84.12 72.33L96 81.68C93.8 84.6133 91.1233 87.07 87.97 89.05C84.8167 90.9567 81.4067 92.3867 77.74 93.34C74.1467 94.2933 70.48 94.77 66.74 94.77ZM57.06 59.79C59.04 59.79 61.0933 59.68 63.22 59.46C65.3467 59.24 67.29 58.8733 69.05 58.36C70.8833 57.7733 72.35 57.0033 73.45 56.05C74.6233 55.0233 75.21 53.74 75.21 52.2C75.21 50.9533 74.77 49.8533 73.89 48.9C73.01 47.9467 71.8367 47.2133 70.37 46.7C68.9033 46.1867 67.3267 45.93 65.64 45.93C62.7067 45.93 60.14 46.6267 57.94 48.02C55.74 49.4133 54.0533 51.1733 52.88 53.3C51.7067 55.3533 51.0467 57.4433 50.9 59.57C51.56 59.6433 52.44 59.7167 53.54 59.79C54.7133 59.79 55.8867 59.79 57.06 59.79Z" fill="white"/>
</svg>
