<svg width="509" height="128" viewBox="0 0 509 128" fill="none" xmlns="http://www.w3.org/2000/svg">
<rect width="128" height="128" rx="32" fill="#F97315"/>
<path d="M66.74 94.77C62.2667 94.77 57.9767 94.0733 53.87 92.68C49.8367 91.2867 46.2433 89.27 43.09 86.63C40.01 83.9167 37.5533 80.6533 35.72 76.84C33.96 73.0267 33.08 68.6633 33.08 63.75C33.08 59.0567 33.9233 54.7667 35.61 50.88C37.37 46.9933 39.7167 43.62 42.65 40.76C45.6567 37.9 49.1033 35.7 52.99 34.16C56.95 32.62 61.13 31.85 65.53 31.85C69.1233 31.85 72.5333 32.3267 75.76 33.28C79.06 34.2333 81.9933 35.6267 84.56 37.46C87.2 39.2933 89.2533 41.4567 90.72 43.95C92.26 46.4433 93.03 49.23 93.03 52.31C93.03 56.1967 91.93 59.4233 89.73 61.99C87.53 64.5567 84.6333 66.5733 81.04 68.04C77.52 69.5067 73.6333 70.57 69.38 71.23C65.2 71.8167 61.0567 72.0733 56.95 72C56.4367 72 55.8133 72 55.08 72C54.42 71.9267 53.7967 71.89 53.21 71.89C52.6233 71.8167 52.1833 71.78 51.89 71.78C52.33 73.4667 53.2467 75.0067 54.64 76.4C56.1067 77.72 57.94 78.7833 60.14 79.59C62.34 80.3967 64.6133 80.8 66.96 80.8C69.3067 80.8 71.5433 80.3967 73.67 79.59C75.87 78.7833 77.85 77.7567 79.61 76.51C81.37 75.2633 82.8733 73.87 84.12 72.33L96 81.68C93.8 84.6133 91.1233 87.07 87.97 89.05C84.8167 90.9567 81.4067 92.3867 77.74 93.34C74.1467 94.2933 70.48 94.77 66.74 94.77ZM57.06 59.79C59.04 59.79 61.0933 59.68 63.22 59.46C65.3467 59.24 67.29 58.8733 69.05 58.36C70.8833 57.7733 72.35 57.0033 73.45 56.05C74.6233 55.0233 75.21 53.74 75.21 52.2C75.21 50.9533 74.77 49.8533 73.89 48.9C73.01 47.9467 71.8367 47.2133 70.37 46.7C68.9033 46.1867 67.3267 45.93 65.64 45.93C62.7067 45.93 60.14 46.6267 57.94 48.02C55.74 49.4133 54.0533 51.1733 52.88 53.3C51.7067 55.3533 51.0467 57.4433 50.9 59.57C51.56 59.6433 52.44 59.7167 53.54 59.79C54.7133 59.79 55.8867 59.79 57.06 59.79Z" fill="white"/>
<path d="M185.56 86.56C182.147 86.56 178.973 86.0267 176.04 84.96C173.16 83.8933 170.627 82.3733 168.44 80.4C166.307 78.4267 164.627 76.08 163.4 73.36C162.227 70.5867 161.64 67.52 161.64 64.16C161.64 60.6933 162.253 57.5467 163.48 54.72C164.707 51.8933 166.413 49.4667 168.6 47.44C170.787 45.4133 173.293 43.8667 176.12 42.8C178.947 41.68 181.933 41.12 185.08 41.12C187.747 41.12 190.253 41.4933 192.6 42.24C194.947 42.9333 197 43.9467 198.76 45.28C200.573 46.56 201.96 48.1067 202.92 49.92C203.933 51.7333 204.44 53.7067 204.44 55.84C204.44 58.6133 203.64 60.9333 202.04 62.8C200.44 64.6667 198.307 66.16 195.64 67.28C193.027 68.3467 190.147 69.0933 187 69.52C183.853 69.8933 180.76 70.0267 177.72 69.92C177.24 69.8667 176.68 69.84 176.04 69.84C175.4 69.84 174.813 69.84 174.28 69.84C173.8 69.7867 173.48 69.76 173.32 69.76C173.64 71.2 174.387 72.5333 175.56 73.76C176.787 74.9867 178.28 75.9467 180.04 76.64C181.8 77.28 183.693 77.6 185.72 77.6C187.48 77.6 189.187 77.3067 190.84 76.72C192.493 76.1333 194.013 75.3333 195.4 74.32C196.84 73.2533 198.013 72.1067 198.92 70.88L206.68 76.72C204.973 78.96 203 80.8267 200.76 82.32C198.52 83.76 196.12 84.8267 193.56 85.52C191 86.2133 188.333 86.56 185.56 86.56ZM178.12 61.84C179.88 61.84 181.64 61.76 183.4 61.6C185.213 61.44 186.867 61.1467 188.36 60.72C189.907 60.24 191.133 59.6 192.04 58.8C193 57.9467 193.48 56.88 193.48 55.6C193.48 54.5333 193.107 53.6 192.36 52.8C191.667 51.9467 190.707 51.28 189.48 50.8C188.307 50.2667 186.947 50 185.4 50C182.947 50 180.76 50.56 178.84 51.68C176.973 52.8 175.507 54.2667 174.44 56.08C173.373 57.84 172.787 59.68 172.68 61.6C173.32 61.6533 174.12 61.7067 175.08 61.76C176.04 61.8133 177.053 61.84 178.12 61.84Z" fill="#FFA15F"/>
<path d="M235.091 86.56C231.678 86.56 228.505 86.0267 225.571 84.96C222.691 83.8933 220.158 82.3733 217.971 80.4C215.838 78.4267 214.158 76.08 212.931 73.36C211.758 70.5867 211.171 67.52 211.171 64.16C211.171 60.6933 211.785 57.5467 213.011 54.72C214.238 51.8933 215.945 49.4667 218.131 47.44C220.318 45.4133 222.825 43.8667 225.651 42.8C228.478 41.68 231.465 41.12 234.611 41.12C237.278 41.12 239.785 41.4933 242.131 42.24C244.478 42.9333 246.531 43.9467 248.291 45.28C250.105 46.56 251.491 48.1067 252.451 49.92C253.465 51.7333 253.971 53.7067 253.971 55.84C253.971 58.6133 253.171 60.9333 251.571 62.8C249.971 64.6667 247.838 66.16 245.171 67.28C242.558 68.3467 239.678 69.0933 236.531 69.52C233.385 69.8933 230.291 70.0267 227.251 69.92C226.771 69.8667 226.211 69.84 225.571 69.84C224.931 69.84 224.345 69.84 223.811 69.84C223.331 69.7867 223.011 69.76 222.851 69.76C223.171 71.2 223.918 72.5333 225.091 73.76C226.318 74.9867 227.811 75.9467 229.571 76.64C231.331 77.28 233.225 77.6 235.251 77.6C237.011 77.6 238.718 77.3067 240.371 76.72C242.025 76.1333 243.545 75.3333 244.931 74.32C246.371 73.2533 247.545 72.1067 248.451 70.88L256.211 76.72C254.505 78.96 252.531 80.8267 250.291 82.32C248.051 83.76 245.651 84.8267 243.091 85.52C240.531 86.2133 237.865 86.56 235.091 86.56ZM227.651 61.84C229.411 61.84 231.171 61.76 232.931 61.6C234.745 61.44 236.398 61.1467 237.891 60.72C239.438 60.24 240.665 59.6 241.571 58.8C242.531 57.9467 243.011 56.88 243.011 55.6C243.011 54.5333 242.638 53.6 241.891 52.8C241.198 51.9467 240.238 51.28 239.011 50.8C237.838 50.2667 236.478 50 234.931 50C232.478 50 230.291 50.56 228.371 51.68C226.505 52.8 225.038 54.2667 223.971 56.08C222.905 57.84 222.318 59.68 222.211 61.6C222.851 61.6533 223.651 61.7067 224.611 61.76C225.571 61.8133 226.585 61.84 227.651 61.84ZM263.583 86V41.68H274.863V51.04C275.556 49.0667 276.623 47.3333 278.062 45.84C279.503 44.3467 281.183 43.2 283.103 42.4C285.023 41.5467 286.996 41.12 289.023 41.12C292.383 41.12 295.316 41.8667 297.823 43.36C300.383 44.8533 302.356 47.0133 303.743 49.84C305.129 52.6133 305.823 55.9733 305.823 59.92V86H294.623V62C294.623 58.48 293.716 55.7333 291.903 53.76C290.089 51.7333 287.716 50.72 284.783 50.72C282.809 50.72 281.076 51.2533 279.583 52.32C278.089 53.3333 276.916 54.7467 276.063 56.56C275.263 58.3733 274.863 60.4533 274.863 62.8V86H263.583ZM337.113 107.68C333.54 107.68 330.206 107.12 327.113 106C324.02 104.933 321.353 103.307 319.113 101.12C316.873 98.9333 315.246 96.2667 314.233 93.12L324.313 89.36C325.38 92.0267 327.033 94.1333 329.273 95.68C331.513 97.28 334.046 98.08 336.873 98.08C339.273 98.08 341.326 97.6 343.033 96.64C344.74 95.68 346.046 94.2667 346.953 92.4C347.913 90.5867 348.393 88.4 348.393 85.84V76.24C347.273 79.4933 345.406 82.0267 342.793 83.84C340.18 85.6533 337.113 86.56 333.593 86.56C329.7 86.56 326.233 85.6 323.193 83.68C320.206 81.7067 317.86 79.0133 316.153 75.6C314.446 72.1333 313.593 68.2133 313.593 63.84C313.593 59.4133 314.446 55.4933 316.153 52.08C317.86 48.6667 320.206 46 323.193 44.08C326.233 42.1067 329.7 41.12 333.593 41.12C337.113 41.12 340.18 42.0267 342.793 43.84C345.406 45.6533 347.273 48.16 348.393 51.36V41.68H359.753V85.68C359.753 88.7733 359.273 91.6267 358.313 94.24C357.353 96.9067 355.94 99.2267 354.073 101.2C352.206 103.227 349.86 104.8 347.033 105.92C344.206 107.093 340.9 107.68 337.113 107.68ZM336.793 76.72C338.82 76.72 340.713 76.24 342.473 75.28C344.233 74.2667 345.646 72.8 346.713 70.88C347.833 68.9067 348.393 66.56 348.393 63.84C348.393 61.0667 347.833 58.72 346.713 56.8C345.646 54.88 344.233 53.44 342.473 52.48C340.713 51.4667 338.82 50.96 336.793 50.96C334.766 50.96 332.846 51.4667 331.033 52.48C329.273 53.44 327.833 54.88 326.713 56.8C325.646 58.72 325.113 61.0667 325.113 63.84C325.113 66.56 325.646 68.9067 326.713 70.88C327.833 72.8 329.273 74.2667 331.033 75.28C332.846 76.24 334.766 76.72 336.793 76.72ZM370.692 74.08V26.8H381.972V73.36C381.972 74.5333 382.319 75.4133 383.012 76C383.705 76.5867 384.532 76.88 385.492 76.88C386.185 76.88 386.772 76.7733 387.252 76.56L389.332 85.12C387.465 86.08 385.332 86.56 382.932 86.56C380.959 86.56 379.012 86.16 377.092 85.36C375.225 84.5067 373.679 83.1733 372.452 81.36C371.279 79.4933 370.692 77.0667 370.692 74.08ZM396.159 86V41.68H407.519V86H396.159ZM401.919 36.32C399.679 36.32 397.812 35.6533 396.319 34.32C394.825 32.9333 394.079 31.2267 394.079 29.2C394.079 27.1733 394.825 25.4667 396.319 24.08C397.812 22.6933 399.679 22 401.919 22C404.159 22 406.025 22.6933 407.519 24.08C409.012 25.4667 409.759 27.1733 409.759 29.2C409.759 31.2267 409.012 32.9333 407.519 34.32C406.025 35.6533 404.159 36.32 401.919 36.32ZM434.901 86.56C431.701 86.56 428.821 86.0533 426.261 85.04C423.701 83.9733 421.567 82.5067 419.861 80.64C418.154 78.7733 416.954 76.6933 416.261 74.4L426.821 72C427.301 73.76 428.261 75.1733 429.701 76.24C431.141 77.2533 432.821 77.76 434.741 77.76C436.981 77.76 438.661 77.3333 439.781 76.48C440.954 75.6267 441.541 74.56 441.541 73.28C441.541 71.9467 440.927 70.9333 439.701 70.24C438.527 69.4933 436.981 68.9067 435.061 68.48C433.194 68 431.194 67.4933 429.061 66.96C426.927 66.3733 424.901 65.6267 422.981 64.72C421.061 63.76 419.487 62.48 418.261 60.88C417.087 59.2267 416.501 57.04 416.501 54.32C416.501 51.92 417.194 49.7067 418.581 47.68C420.021 45.6533 422.047 44.0533 424.661 42.88C427.274 41.7067 430.394 41.12 434.021 41.12C437.167 41.12 439.941 41.6 442.341 42.56C444.741 43.52 446.714 44.9067 448.261 46.72C449.807 48.48 450.874 50.56 451.461 52.96L441.221 55.68C440.741 53.8133 439.887 52.4 438.661 51.44C437.487 50.4267 435.834 49.92 433.701 49.92C431.674 49.92 430.127 50.32 429.061 51.12C427.994 51.8667 427.461 52.88 427.461 54.16C427.461 55.4933 428.047 56.5333 429.221 57.28C430.447 57.9733 431.994 58.5867 433.861 59.12C435.781 59.6 437.807 60.1333 439.941 60.72C442.074 61.2533 444.074 62 445.941 62.96C447.861 63.92 449.407 65.2267 450.581 66.88C451.807 68.5333 452.421 70.72 452.421 73.44C452.421 75.84 451.701 78.0533 450.261 80.08C448.821 82.0533 446.794 83.6267 444.181 84.8C441.567 85.9733 438.474 86.56 434.901 86.56ZM461.239 86V26.8H472.519V51.04C473.212 49.0667 474.279 47.3333 475.719 45.84C477.159 44.3467 478.839 43.2 480.759 42.4C482.679 41.5467 484.652 41.12 486.679 41.12C490.039 41.12 492.972 41.8667 495.479 43.36C498.039 44.8533 500.012 47.0133 501.399 49.84C502.785 52.6133 503.479 55.9733 503.479 59.92V86H492.279V62.08C492.279 58.56 491.372 55.7867 489.559 53.76C487.745 51.7333 485.372 50.72 482.439 50.72C480.465 50.72 478.732 51.2533 477.239 52.32C475.745 53.3867 474.572 54.8267 473.719 56.64C472.919 58.4533 472.519 60.5333 472.519 62.88V86H461.239Z" fill="#F97315"/>
</svg>
